%TF.GenerationSoftware,KiCad,Pcbnew,10.0.1*%
%TF.CreationDate,2026-09-09T14:38:07-04:00*%
%TF.ProjectId,CPLD_bcdtohex,43504c44-5f62-4636-9474-6f6865782e6b,.6*%
%TF.SameCoordinates,Original*%
%TF.FileFunction,Soldermask,Bot*%
%TF.FilePolarity,Negative*%
%FSLAX46Y46*%
G04 Gerber Fmt 4.6, Leading zero omitted, Abs format (unit mm)*
G04 Created by KiCad (PCBNEW 10.0.1) date 2026-09-09 14:38:07*
%MOMM*%
%LPD*%
G01*
G04 APERTURE LIST*
G04 Aperture macros list*
%AMRoundRect*
0 Rectangle with rounded corners*
0 $1 Rounding radius*
0 $2 $3 $4 $5 $6 $7 $8 $9 X,Y pos of 4 corners*
0 Add a 4 corners polygon primitive as box body*
4,1,4,$2,$3,$4,$5,$6,$7,$8,$9,$2,$3,0*
0 Add four circle primitives for the rounded corners*
1,1,$1+$1,$2,$3*
1,1,$1+$1,$4,$5*
1,1,$1+$1,$6,$7*
1,1,$1+$1,$8,$9*
0 Add four rect primitives between the rounded corners*
20,1,$1+$1,$2,$3,$4,$5,0*
20,1,$1+$1,$4,$5,$6,$7,0*
20,1,$1+$1,$6,$7,$8,$9,0*
20,1,$1+$1,$8,$9,$2,$3,0*%
G04 Aperture macros list end*
%ADD10C,2.700000*%
%ADD11C,1.600000*%
%ADD12RoundRect,0.250000X-0.550000X-0.550000X0.550000X-0.550000X0.550000X0.550000X-0.550000X0.550000X0*%
%ADD13R,1.700000X1.700000*%
%ADD14C,1.700000*%
%ADD15R,1.600000X1.600000*%
G04 APERTURE END LIST*
D10*
%TO.C,mh*%
X163000000Y-138000000D03*
%TD*%
D11*
%TO.C,C1*%
X163500000Y-114500000D03*
X163500000Y-109500000D03*
%TD*%
%TO.C,IC1*%
X157500000Y-108060000D03*
X157500000Y-110600000D03*
X157500000Y-113140000D03*
X157500000Y-115680000D03*
X157500000Y-118220000D03*
X157500000Y-120760000D03*
X157500000Y-123300000D03*
X157500000Y-125840000D03*
X157500000Y-128380000D03*
X157500000Y-130920000D03*
X157500000Y-133460000D03*
X157500000Y-136000000D03*
X147340000Y-136000000D03*
X147340000Y-133460000D03*
X147340000Y-130920000D03*
X147340000Y-128380000D03*
X147340000Y-125840000D03*
X147340000Y-123300000D03*
X147340000Y-120760000D03*
X147340000Y-118220000D03*
X147340000Y-115680000D03*
X147340000Y-113140000D03*
X147340000Y-110600000D03*
D12*
X147340000Y-108060000D03*
%TD*%
D11*
%TO.C,RN2*%
X156280000Y-82610000D03*
X156280000Y-85150000D03*
X156280000Y-87690000D03*
X156280000Y-90230000D03*
X156280000Y-92770000D03*
X156280000Y-95310000D03*
X156280000Y-97850000D03*
X156280000Y-100390000D03*
X148660000Y-100390000D03*
X148660000Y-97850000D03*
X148660000Y-95310000D03*
X148660000Y-92770000D03*
X148660000Y-90230000D03*
X148660000Y-87690000D03*
X148660000Y-85150000D03*
D12*
X148660000Y-82610000D03*
%TD*%
D11*
%TO.C,DS1*%
X156280000Y-65500000D03*
X156280000Y-68040000D03*
X156280000Y-70580000D03*
X156280000Y-73120000D03*
X156280000Y-75660000D03*
X148660000Y-75660000D03*
X148660000Y-73120000D03*
X148660000Y-70580000D03*
X148660000Y-68040000D03*
D12*
X148660000Y-65500000D03*
%TD*%
D13*
%TO.C,J1*%
X143880000Y-148705000D03*
D14*
X146420000Y-148705000D03*
X148960000Y-148705000D03*
X151500000Y-148705000D03*
X154040000Y-148705000D03*
X156580000Y-148705000D03*
X159120000Y-148705000D03*
X161660000Y-148705000D03*
%TD*%
D10*
%TO.C,mh*%
X141500000Y-63000000D03*
%TD*%
D15*
%TO.C,RN1*%
X144920000Y-144000000D03*
D11*
X147460000Y-144000000D03*
X150000000Y-144000000D03*
X152540000Y-144000000D03*
X155080000Y-144000000D03*
X157620000Y-144000000D03*
X160160000Y-144000000D03*
%TD*%
M02*
