%TF.GenerationSoftware,KiCad,Pcbnew,10.0.1*%
%TF.CreationDate,2026-09-09T14:38:06-04:00*%
%TF.ProjectId,CPLD_bcdtohex,43504c44-5f62-4636-9474-6f6865782e6b,.6*%
%TF.SameCoordinates,Original*%
%TF.FileFunction,Copper,L1,Top*%
%TF.FilePolarity,Positive*%
%FSLAX46Y46*%
G04 Gerber Fmt 4.6, Leading zero omitted, Abs format (unit mm)*
G04 Created by KiCad (PCBNEW 10.0.1) date 2026-09-09 14:38:06*
%MOMM*%
%LPD*%
G01*
G04 APERTURE LIST*
G04 Aperture macros list*
%AMRoundRect*
0 Rectangle with rounded corners*
0 $1 Rounding radius*
0 $2 $3 $4 $5 $6 $7 $8 $9 X,Y pos of 4 corners*
0 Add a 4 corners polygon primitive as box body*
4,1,4,$2,$3,$4,$5,$6,$7,$8,$9,$2,$3,0*
0 Add four circle primitives for the rounded corners*
1,1,$1+$1,$2,$3*
1,1,$1+$1,$4,$5*
1,1,$1+$1,$6,$7*
1,1,$1+$1,$8,$9*
0 Add four rect primitives between the rounded corners*
20,1,$1+$1,$2,$3,$4,$5,0*
20,1,$1+$1,$4,$5,$6,$7,0*
20,1,$1+$1,$6,$7,$8,$9,0*
20,1,$1+$1,$8,$9,$2,$3,0*%
G04 Aperture macros list end*
%TA.AperFunction,ComponentPad*%
%ADD10C,1.600000*%
%TD*%
%TA.AperFunction,ComponentPad*%
%ADD11RoundRect,0.250000X-0.550000X-0.550000X0.550000X-0.550000X0.550000X0.550000X-0.550000X0.550000X0*%
%TD*%
%TA.AperFunction,ComponentPad*%
%ADD12R,1.700000X1.700000*%
%TD*%
%TA.AperFunction,ComponentPad*%
%ADD13C,1.700000*%
%TD*%
%TA.AperFunction,ComponentPad*%
%ADD14R,1.600000X1.600000*%
%TD*%
%TA.AperFunction,Conductor*%
%ADD15C,0.200000*%
%TD*%
G04 APERTURE END LIST*
D10*
%TO.P,C1,1*%
%TO.N,Net-(IC1-VCC)*%
X163500000Y-114500000D03*
%TO.P,C1,2*%
%TO.N,GND*%
X163500000Y-109500000D03*
%TD*%
%TO.P,IC1,24,VCC_24*%
%TO.N,Net-(IC1-VCC)*%
X157500000Y-108060000D03*
%TO.P,IC1,23,I/O_10_23*%
%TO.N,unconnected-(IC1-I{slash}O_10-Pad23)*%
X157500000Y-110600000D03*
%TO.P,IC1,22,I/O_9_22*%
%TO.N,unconnected-(IC1-I{slash}O_9-Pad22)*%
X157500000Y-113140000D03*
%TO.P,IC1,21,I/O_8_21*%
%TO.N,/SEG_A_OUT_N*%
X157500000Y-115680000D03*
%TO.P,IC1,20,I/O_7_20*%
%TO.N,/SEG_B_OUT_N*%
X157500000Y-118220000D03*
%TO.P,IC1,19,I/O_6_19*%
%TO.N,/SEG_C_OUT_N*%
X157500000Y-120760000D03*
%TO.P,IC1,18,I/O_5_18*%
%TO.N,/SEG_D_OUT_N*%
X157500000Y-123300000D03*
%TO.P,IC1,17,I/O_4_17*%
%TO.N,/SEG_E_OUT_N*%
X157500000Y-125840000D03*
%TO.P,IC1,16,I/O_3_16*%
%TO.N,/SEG_F_OUT_N*%
X157500000Y-128380000D03*
%TO.P,IC1,15,I/O_2_15*%
%TO.N,/SEG_G_OUT_N*%
X157500000Y-130920000D03*
%TO.P,IC1,14,I/O_1_14*%
%TO.N,/DP_OUT_N*%
X157500000Y-133460000D03*
%TO.P,IC1,13,IN_11_13*%
%TO.N,unconnected-(IC1-IN_11-Pad13)*%
X157500000Y-136000000D03*
%TO.P,IC1,12,GND_12*%
%TO.N,GND*%
X147340000Y-136000000D03*
%TO.P,IC1,11,IN_10_11*%
%TO.N,unconnected-(IC1-IN_10-Pad11)*%
X147340000Y-133460000D03*
%TO.P,IC1,10,IN_9_10*%
%TO.N,unconnected-(IC1-IN_9-Pad10)*%
X147340000Y-130920000D03*
%TO.P,IC1,9,IN_8_9*%
%TO.N,unconnected-(IC1-IN_8-Pad9)*%
X147340000Y-128380000D03*
%TO.P,IC1,8,IN_7_8*%
%TO.N,unconnected-(IC1-IN_7-Pad8)*%
X147340000Y-125840000D03*
%TO.P,IC1,7,IN_6_7*%
%TO.N,/DP*%
X147340000Y-123300000D03*
%TO.P,IC1,6,IN_5_6*%
%TO.N,/BLANK*%
X147340000Y-120760000D03*
%TO.P,IC1,5,IN_4_5*%
%TO.N,/D0*%
X147340000Y-118220000D03*
%TO.P,IC1,4,IN_3_4*%
%TO.N,/D1*%
X147340000Y-115680000D03*
%TO.P,IC1,3,IN_2_3*%
%TO.N,/D2*%
X147340000Y-113140000D03*
%TO.P,IC1,2,IN_1_2*%
%TO.N,/D3*%
X147340000Y-110600000D03*
D11*
%TO.P,IC1,1,CLK/IN_1*%
%TO.N,unconnected-(IC1-CLK{slash}IN-Pad1)*%
X147340000Y-108060000D03*
%TD*%
D10*
%TO.P,RN2,16,R1.2_16*%
%TO.N,/DP_OUT_N*%
X156280000Y-82610000D03*
%TO.P,RN2,15,R2.2_15*%
%TO.N,/SEG_G_OUT_N*%
X156280000Y-85150000D03*
%TO.P,RN2,14,R3.2_14*%
%TO.N,/SEG_F_OUT_N*%
X156280000Y-87690000D03*
%TO.P,RN2,13,R4.2_13*%
%TO.N,/SEG_E_OUT_N*%
X156280000Y-90230000D03*
%TO.P,RN2,12,R5.2_12*%
%TO.N,/SEG_D_OUT_N*%
X156280000Y-92770000D03*
%TO.P,RN2,11,R6.2_11*%
%TO.N,/SEG_C_OUT_N*%
X156280000Y-95310000D03*
%TO.P,RN2,10,R7.2_10*%
%TO.N,/SEG_B_OUT_N*%
X156280000Y-97850000D03*
%TO.P,RN2,9,R8.2_9*%
%TO.N,/SEG_A_OUT_N*%
X156280000Y-100390000D03*
%TO.P,RN2,8,R8.1_8*%
%TO.N,Net-(DS1-a)*%
X148660000Y-100390000D03*
%TO.P,RN2,7,R7.1_7*%
%TO.N,Net-(DS1-b)*%
X148660000Y-97850000D03*
%TO.P,RN2,6,R6.1_6*%
%TO.N,Net-(DS1-c)*%
X148660000Y-95310000D03*
%TO.P,RN2,5,R5.1_5*%
%TO.N,Net-(DS1-d)*%
X148660000Y-92770000D03*
%TO.P,RN2,4,R4.1_4*%
%TO.N,Net-(DS1-e)*%
X148660000Y-90230000D03*
%TO.P,RN2,3,R3.1_3*%
%TO.N,Net-(DS1-f)*%
X148660000Y-87690000D03*
%TO.P,RN2,2,R2.1_2*%
%TO.N,Net-(DS1-g)*%
X148660000Y-85150000D03*
D11*
%TO.P,RN2,1,R1.1_1*%
%TO.N,Net-(DS1-DP)*%
X148660000Y-82610000D03*
%TD*%
D10*
%TO.P,DS1,10,a_10*%
%TO.N,Net-(DS1-a)*%
X156280000Y-65500000D03*
%TO.P,DS1,9,b_9*%
%TO.N,Net-(DS1-b)*%
X156280000Y-68040000D03*
%TO.P,DS1,8,C.A._8*%
%TO.N,+5V*%
X156280000Y-70580000D03*
%TO.P,DS1,7,c_7*%
%TO.N,Net-(DS1-c)*%
X156280000Y-73120000D03*
%TO.P,DS1,6,DP_6*%
%TO.N,Net-(DS1-DP)*%
X156280000Y-75660000D03*
%TO.P,DS1,5,d_5*%
%TO.N,Net-(DS1-d)*%
X148660000Y-75660000D03*
%TO.P,DS1,4,e_4*%
%TO.N,Net-(DS1-e)*%
X148660000Y-73120000D03*
%TO.P,DS1,3,C.A._3*%
%TO.N,+5V*%
X148660000Y-70580000D03*
%TO.P,DS1,2,f_2*%
%TO.N,Net-(DS1-f)*%
X148660000Y-68040000D03*
D11*
%TO.P,DS1,1,g_1*%
%TO.N,Net-(DS1-g)*%
X148660000Y-65500000D03*
%TD*%
D12*
%TO.P,J1,1,Pin_1_1*%
%TO.N,+5V*%
X143880000Y-148705000D03*
D13*
%TO.P,J1,2,Pin_2_2*%
%TO.N,GND*%
X146420000Y-148705000D03*
%TO.P,J1,3,Pin_3_3*%
%TO.N,/D3*%
X148960000Y-148705000D03*
%TO.P,J1,4,Pin_4_4*%
%TO.N,/D2*%
X151500000Y-148705000D03*
%TO.P,J1,5,Pin_5_5*%
%TO.N,/D1*%
X154040000Y-148705000D03*
%TO.P,J1,6,Pin_6_6*%
%TO.N,/D0*%
X156580000Y-148705000D03*
%TO.P,J1,7,Pin_7_7*%
%TO.N,/BLANK*%
X159120000Y-148705000D03*
%TO.P,J1,8,Pin_8_8*%
%TO.N,/DP*%
X161660000Y-148705000D03*
%TD*%
D14*
%TO.P,RN1,1,common_1*%
%TO.N,GND*%
X144920000Y-144000000D03*
D10*
%TO.P,RN1,2,R1_2*%
%TO.N,/D3*%
X147460000Y-144000000D03*
%TO.P,RN1,3,R2_3*%
%TO.N,/D2*%
X150000000Y-144000000D03*
%TO.P,RN1,4,R3_4*%
%TO.N,/D1*%
X152540000Y-144000000D03*
%TO.P,RN1,5,R4_5*%
%TO.N,/D0*%
X155080000Y-144000000D03*
%TO.P,RN1,6,R5_6*%
%TO.N,/BLANK*%
X157620000Y-144000000D03*
%TO.P,RN1,7,R6_7*%
%TO.N,/DP*%
X160160000Y-144000000D03*
%TD*%
%TO.N,/DP_OUT_N*%
D15*
X162000000Y-88330000D02*
X156280000Y-82610000D01*
X162000000Y-128960000D02*
X162000000Y-88330000D01*
X157500000Y-133460000D02*
X162000000Y-128960000D01*
%TO.N,/SEG_G_OUT_N*%
X161200000Y-90070000D02*
X156280000Y-85150000D01*
X161200000Y-127220000D02*
X161200000Y-90070000D01*
X157500000Y-130920000D02*
X161200000Y-127220000D01*
%TO.N,/SEG_F_OUT_N*%
X160800000Y-92210000D02*
X156280000Y-87690000D01*
X160800000Y-125080000D02*
X160800000Y-92210000D01*
X157500000Y-128380000D02*
X160800000Y-125080000D01*
%TO.N,/SEG_E_OUT_N*%
X160400000Y-94350000D02*
X156280000Y-90230000D01*
X160400000Y-122940000D02*
X160400000Y-94350000D01*
X157500000Y-125840000D02*
X160400000Y-122940000D01*
%TO.N,/SEG_D_OUT_N*%
X160000000Y-96490000D02*
X156280000Y-92770000D01*
X160000000Y-120800000D02*
X160000000Y-96490000D01*
X157500000Y-123300000D02*
X160000000Y-120800000D01*
%TO.N,/SEG_C_OUT_N*%
X159400000Y-98430000D02*
X156280000Y-95310000D01*
X159400000Y-118860000D02*
X159400000Y-98430000D01*
X157500000Y-120760000D02*
X159400000Y-118860000D01*
%TO.N,/SEG_B_OUT_N*%
X159000000Y-100570000D02*
X156280000Y-97850000D01*
X159000000Y-116720000D02*
X159000000Y-100570000D01*
X157500000Y-118220000D02*
X159000000Y-116720000D01*
%TO.N,/SEG_A_OUT_N*%
X157500000Y-115680000D02*
X158600000Y-114580000D01*
X158600000Y-114580000D02*
X158600000Y-102710000D01*
X158600000Y-102710000D02*
X156280000Y-100390000D01*
%TO.N,Net-(DS1-DP)*%
X148660000Y-82610000D02*
X149330000Y-82610000D01*
X149330000Y-82610000D02*
X156280000Y-75660000D01*
%TO.N,Net-(DS1-e)*%
X146760000Y-88330000D02*
X148660000Y-90230000D01*
X146760000Y-80240000D02*
X146760000Y-88330000D01*
X150000000Y-77000000D02*
X146760000Y-80240000D01*
X150000000Y-74460000D02*
X150000000Y-77000000D01*
X148660000Y-73120000D02*
X150000000Y-74460000D01*
%TO.N,Net-(DS1-d)*%
X148660000Y-92770000D02*
X146360000Y-90470000D01*
X146360000Y-90470000D02*
X146360000Y-77960000D01*
X146360000Y-77960000D02*
X148660000Y-75660000D01*
%TO.N,Net-(DS1-c)*%
X148660000Y-95310000D02*
X149760000Y-94210000D01*
X157380000Y-77620000D02*
X157380000Y-74220000D01*
X149760000Y-85240000D02*
X157380000Y-77620000D01*
X157380000Y-74220000D02*
X156280000Y-73120000D01*
X149760000Y-94210000D02*
X149760000Y-85240000D01*
%TO.N,Net-(DS1-b)*%
X156280000Y-68040000D02*
X158040000Y-68040000D01*
X154600000Y-96000000D02*
X152750000Y-97850000D01*
X159000000Y-77000000D02*
X154600000Y-81400000D01*
X158040000Y-68040000D02*
X159000000Y-69000000D01*
X159000000Y-69000000D02*
X159000000Y-77000000D01*
X152750000Y-97850000D02*
X148660000Y-97850000D01*
X154600000Y-81400000D02*
X154600000Y-96000000D01*
%TO.N,Net-(DS1-a)*%
X156280000Y-65500000D02*
X158500000Y-65500000D01*
X155000000Y-82000000D02*
X155000000Y-99000000D01*
X153610000Y-100390000D02*
X148660000Y-100390000D01*
X160000000Y-67000000D02*
X160000000Y-77000000D01*
X160000000Y-77000000D02*
X155000000Y-82000000D01*
X155000000Y-99000000D02*
X153610000Y-100390000D01*
X158500000Y-65500000D02*
X160000000Y-67000000D01*
%TO.N,/D1*%
X145440000Y-136900000D02*
X145440000Y-117580000D01*
X152540000Y-147205000D02*
X152540000Y-144000000D01*
X152540000Y-144000000D02*
X145440000Y-136900000D01*
X154040000Y-148705000D02*
X152540000Y-147205000D01*
X145440000Y-117580000D02*
X147340000Y-115680000D01*
%TO.N,/DP*%
X147795635Y-119660000D02*
X146884365Y-119660000D01*
X146240000Y-120304365D02*
X146240000Y-122200000D01*
X149240000Y-133080000D02*
X149240000Y-121104365D01*
X160160000Y-144000000D02*
X149240000Y-133080000D01*
X161660000Y-148705000D02*
X160160000Y-147205000D01*
X149240000Y-121104365D02*
X147795635Y-119660000D01*
X160160000Y-147205000D02*
X160160000Y-144000000D01*
X146240000Y-122200000D02*
X147340000Y-123300000D01*
X146884365Y-119660000D02*
X146240000Y-120304365D01*
%TO.N,/D2*%
X145040000Y-139040000D02*
X145040000Y-115440000D01*
X150000000Y-147205000D02*
X150000000Y-144000000D01*
X145040000Y-115440000D02*
X147340000Y-113140000D01*
X151500000Y-148705000D02*
X150000000Y-147205000D01*
X150000000Y-144000000D02*
X145040000Y-139040000D01*
%TO.N,/D0*%
X147604365Y-137820000D02*
X145840000Y-136055635D01*
X156580000Y-148705000D02*
X155080000Y-147205000D01*
X145840000Y-136055635D02*
X145840000Y-119720000D01*
X145840000Y-119720000D02*
X147340000Y-118220000D01*
X148900000Y-137820000D02*
X147604365Y-137820000D01*
X155080000Y-147205000D02*
X155080000Y-144000000D01*
X155080000Y-144000000D02*
X148900000Y-137820000D01*
X155080000Y-144000000D02*
X155000000Y-144000000D01*
%TO.N,/BLANK*%
X148840000Y-122260000D02*
X147340000Y-120760000D01*
X159120000Y-148705000D02*
X157620000Y-147205000D01*
X148840000Y-135220000D02*
X148840000Y-122260000D01*
X157620000Y-147205000D02*
X157620000Y-144000000D01*
X157620000Y-144000000D02*
X148840000Y-135220000D01*
%TO.N,/D3*%
X147460000Y-147205000D02*
X147460000Y-144000000D01*
X148960000Y-148705000D02*
X147460000Y-147205000D01*
X147460000Y-144000000D02*
X144640000Y-141180000D01*
X144640000Y-113300000D02*
X147340000Y-110600000D01*
X144640000Y-141180000D02*
X144640000Y-113300000D01*
%TD*%
M02*
