%TF.GenerationSoftware,KiCad,Pcbnew,10.0.1*%
%TF.CreationDate,2026-09-09T14:38:06-04:00*%
%TF.ProjectId,CPLD_bcdtohex,43504c44-5f62-4636-9474-6f6865782e6b,.6*%
%TF.SameCoordinates,Original*%
%TF.FileFunction,Copper,L2,Inr*%
%TF.FilePolarity,Positive*%
%FSLAX46Y46*%
G04 Gerber Fmt 4.6, Leading zero omitted, Abs format (unit mm)*
G04 Created by KiCad (PCBNEW 10.0.1) date 2026-09-09 14:38:06*
%MOMM*%
%LPD*%
G01*
G04 APERTURE LIST*
G04 Aperture macros list*
%AMRoundRect*
0 Rectangle with rounded corners*
0 $1 Rounding radius*
0 $2 $3 $4 $5 $6 $7 $8 $9 X,Y pos of 4 corners*
0 Add a 4 corners polygon primitive as box body*
4,1,4,$2,$3,$4,$5,$6,$7,$8,$9,$2,$3,0*
0 Add four circle primitives for the rounded corners*
1,1,$1+$1,$2,$3*
1,1,$1+$1,$4,$5*
1,1,$1+$1,$6,$7*
1,1,$1+$1,$8,$9*
0 Add four rect primitives between the rounded corners*
20,1,$1+$1,$2,$3,$4,$5,0*
20,1,$1+$1,$4,$5,$6,$7,0*
20,1,$1+$1,$6,$7,$8,$9,0*
20,1,$1+$1,$8,$9,$2,$3,0*%
G04 Aperture macros list end*
%TA.AperFunction,ComponentPad*%
%ADD10C,1.600000*%
%TD*%
%TA.AperFunction,ComponentPad*%
%ADD11RoundRect,0.250000X-0.550000X-0.550000X0.550000X-0.550000X0.550000X0.550000X-0.550000X0.550000X0*%
%TD*%
%TA.AperFunction,ComponentPad*%
%ADD12R,1.700000X1.700000*%
%TD*%
%TA.AperFunction,ComponentPad*%
%ADD13C,1.700000*%
%TD*%
%TA.AperFunction,ComponentPad*%
%ADD14R,1.600000X1.600000*%
%TD*%
G04 APERTURE END LIST*
D10*
%TO.N,Net-(IC1-VCC)*%
%TO.C,C1*%
X163500000Y-114500000D03*
%TO.N,GND*%
X163500000Y-109500000D03*
%TD*%
%TO.N,Net-(IC1-VCC)*%
%TO.C,IC1*%
X157500000Y-108060000D03*
%TO.N,unconnected-(IC1-I{slash}O_10-Pad23)*%
X157500000Y-110600000D03*
%TO.N,unconnected-(IC1-I{slash}O_9-Pad22)*%
X157500000Y-113140000D03*
%TO.N,/SEG_A_OUT_N*%
X157500000Y-115680000D03*
%TO.N,/SEG_B_OUT_N*%
X157500000Y-118220000D03*
%TO.N,/SEG_C_OUT_N*%
X157500000Y-120760000D03*
%TO.N,/SEG_D_OUT_N*%
X157500000Y-123300000D03*
%TO.N,/SEG_E_OUT_N*%
X157500000Y-125840000D03*
%TO.N,/SEG_F_OUT_N*%
X157500000Y-128380000D03*
%TO.N,/SEG_G_OUT_N*%
X157500000Y-130920000D03*
%TO.N,/DP_OUT_N*%
X157500000Y-133460000D03*
%TO.N,unconnected-(IC1-IN_11-Pad13)*%
X157500000Y-136000000D03*
%TO.N,GND*%
X147340000Y-136000000D03*
%TO.N,unconnected-(IC1-IN_10-Pad11)*%
X147340000Y-133460000D03*
%TO.N,unconnected-(IC1-IN_9-Pad10)*%
X147340000Y-130920000D03*
%TO.N,unconnected-(IC1-IN_8-Pad9)*%
X147340000Y-128380000D03*
%TO.N,unconnected-(IC1-IN_7-Pad8)*%
X147340000Y-125840000D03*
%TO.N,/DP*%
X147340000Y-123300000D03*
%TO.N,/BLANK*%
X147340000Y-120760000D03*
%TO.N,/D0*%
X147340000Y-118220000D03*
%TO.N,/D1*%
X147340000Y-115680000D03*
%TO.N,/D2*%
X147340000Y-113140000D03*
%TO.N,/D3*%
X147340000Y-110600000D03*
D11*
%TO.N,unconnected-(IC1-CLK{slash}IN-Pad1)*%
X147340000Y-108060000D03*
%TD*%
D10*
%TO.N,/DP_OUT_N*%
%TO.C,RN2*%
X156280000Y-82610000D03*
%TO.N,/SEG_G_OUT_N*%
X156280000Y-85150000D03*
%TO.N,/SEG_F_OUT_N*%
X156280000Y-87690000D03*
%TO.N,/SEG_E_OUT_N*%
X156280000Y-90230000D03*
%TO.N,/SEG_D_OUT_N*%
X156280000Y-92770000D03*
%TO.N,/SEG_C_OUT_N*%
X156280000Y-95310000D03*
%TO.N,/SEG_B_OUT_N*%
X156280000Y-97850000D03*
%TO.N,/SEG_A_OUT_N*%
X156280000Y-100390000D03*
%TO.N,Net-(DS1-a)*%
X148660000Y-100390000D03*
%TO.N,Net-(DS1-b)*%
X148660000Y-97850000D03*
%TO.N,Net-(DS1-c)*%
X148660000Y-95310000D03*
%TO.N,Net-(DS1-d)*%
X148660000Y-92770000D03*
%TO.N,Net-(DS1-e)*%
X148660000Y-90230000D03*
%TO.N,Net-(DS1-f)*%
X148660000Y-87690000D03*
%TO.N,Net-(DS1-g)*%
X148660000Y-85150000D03*
D11*
%TO.N,Net-(DS1-DP)*%
X148660000Y-82610000D03*
%TD*%
D10*
%TO.N,Net-(DS1-a)*%
%TO.C,DS1*%
X156280000Y-65500000D03*
%TO.N,Net-(DS1-b)*%
X156280000Y-68040000D03*
%TO.N,+5V*%
X156280000Y-70580000D03*
%TO.N,Net-(DS1-c)*%
X156280000Y-73120000D03*
%TO.N,Net-(DS1-DP)*%
X156280000Y-75660000D03*
%TO.N,Net-(DS1-d)*%
X148660000Y-75660000D03*
%TO.N,Net-(DS1-e)*%
X148660000Y-73120000D03*
%TO.N,+5V*%
X148660000Y-70580000D03*
%TO.N,Net-(DS1-f)*%
X148660000Y-68040000D03*
D11*
%TO.N,Net-(DS1-g)*%
X148660000Y-65500000D03*
%TD*%
D12*
%TO.N,+5V*%
%TO.C,J1*%
X143880000Y-148705000D03*
D13*
%TO.N,GND*%
X146420000Y-148705000D03*
%TO.N,/D3*%
X148960000Y-148705000D03*
%TO.N,/D2*%
X151500000Y-148705000D03*
%TO.N,/D1*%
X154040000Y-148705000D03*
%TO.N,/D0*%
X156580000Y-148705000D03*
%TO.N,/BLANK*%
X159120000Y-148705000D03*
%TO.N,/DP*%
X161660000Y-148705000D03*
%TD*%
D14*
%TO.N,GND*%
%TO.C,RN1*%
X144920000Y-144000000D03*
D10*
%TO.N,/D3*%
X147460000Y-144000000D03*
%TO.N,/D2*%
X150000000Y-144000000D03*
%TO.N,/D1*%
X152540000Y-144000000D03*
%TO.N,/D0*%
X155080000Y-144000000D03*
%TO.N,/BLANK*%
X157620000Y-144000000D03*
%TO.N,/DP*%
X160160000Y-144000000D03*
%TD*%
%TA.AperFunction,Conductor*%
%TO.N,+5V*%
G36*
X167742539Y-59720185D02*
G01*
X167788294Y-59772989D01*
X167799500Y-59824500D01*
X167799500Y-155175500D01*
X167779815Y-155242539D01*
X167727011Y-155288294D01*
X167675500Y-155299500D01*
X137824500Y-155299500D01*
X137757461Y-155279815D01*
X137711706Y-155227011D01*
X137700500Y-155175500D01*
X137700500Y-147807155D01*
X142530000Y-147807155D01*
X142530000Y-148455000D01*
X143446988Y-148455000D01*
X143414075Y-148512007D01*
X143380000Y-148639174D01*
X143380000Y-148770826D01*
X143414075Y-148897993D01*
X143446988Y-148955000D01*
X142530000Y-148955000D01*
X142530000Y-149602844D01*
X142536401Y-149662372D01*
X142536403Y-149662379D01*
X142586645Y-149797086D01*
X142586649Y-149797093D01*
X142672809Y-149912187D01*
X142672812Y-149912190D01*
X142787906Y-149998350D01*
X142787913Y-149998354D01*
X142922620Y-150048596D01*
X142922627Y-150048598D01*
X142982155Y-150054999D01*
X142982172Y-150055000D01*
X143630000Y-150055000D01*
X143630000Y-149138012D01*
X143687007Y-149170925D01*
X143814174Y-149205000D01*
X143945826Y-149205000D01*
X144072993Y-149170925D01*
X144130000Y-149138012D01*
X144130000Y-150055000D01*
X144777828Y-150055000D01*
X144777844Y-150054999D01*
X144837372Y-150048598D01*
X144837379Y-150048596D01*
X144972086Y-149998354D01*
X144972093Y-149998350D01*
X145087187Y-149912190D01*
X145087190Y-149912187D01*
X145173350Y-149797093D01*
X145173354Y-149797086D01*
X145222422Y-149665529D01*
X145264293Y-149609595D01*
X145329757Y-149585178D01*
X145398030Y-149600030D01*
X145426285Y-149621181D01*
X145540213Y-149735109D01*
X145712179Y-149860048D01*
X145712181Y-149860049D01*
X145712184Y-149860051D01*
X145901588Y-149956557D01*
X146103757Y-150022246D01*
X146313713Y-150055500D01*
X146313714Y-150055500D01*
X146526286Y-150055500D01*
X146526287Y-150055500D01*
X146736243Y-150022246D01*
X146938412Y-149956557D01*
X147127816Y-149860051D01*
X147214471Y-149797093D01*
X147299786Y-149735109D01*
X147299788Y-149735106D01*
X147299792Y-149735104D01*
X147450104Y-149584792D01*
X147450106Y-149584788D01*
X147450109Y-149584786D01*
X147575048Y-149412820D01*
X147575047Y-149412820D01*
X147575051Y-149412816D01*
X147579514Y-149404054D01*
X147627488Y-149353259D01*
X147695308Y-149336463D01*
X147761444Y-149358999D01*
X147800486Y-149404056D01*
X147804951Y-149412820D01*
X147929890Y-149584786D01*
X148080213Y-149735109D01*
X148252179Y-149860048D01*
X148252181Y-149860049D01*
X148252184Y-149860051D01*
X148441588Y-149956557D01*
X148643757Y-150022246D01*
X148853713Y-150055500D01*
X148853714Y-150055500D01*
X149066286Y-150055500D01*
X149066287Y-150055500D01*
X149276243Y-150022246D01*
X149478412Y-149956557D01*
X149667816Y-149860051D01*
X149754471Y-149797093D01*
X149839786Y-149735109D01*
X149839788Y-149735106D01*
X149839792Y-149735104D01*
X149990104Y-149584792D01*
X149990106Y-149584788D01*
X149990109Y-149584786D01*
X150115048Y-149412820D01*
X150115047Y-149412820D01*
X150115051Y-149412816D01*
X150119514Y-149404054D01*
X150167488Y-149353259D01*
X150235308Y-149336463D01*
X150301444Y-149358999D01*
X150340486Y-149404056D01*
X150344951Y-149412820D01*
X150469890Y-149584786D01*
X150620213Y-149735109D01*
X150792179Y-149860048D01*
X150792181Y-149860049D01*
X150792184Y-149860051D01*
X150981588Y-149956557D01*
X151183757Y-150022246D01*
X151393713Y-150055500D01*
X151393714Y-150055500D01*
X151606286Y-150055500D01*
X151606287Y-150055500D01*
X151816243Y-150022246D01*
X152018412Y-149956557D01*
X152207816Y-149860051D01*
X152294471Y-149797093D01*
X152379786Y-149735109D01*
X152379788Y-149735106D01*
X152379792Y-149735104D01*
X152530104Y-149584792D01*
X152530106Y-149584788D01*
X152530109Y-149584786D01*
X152655048Y-149412820D01*
X152655047Y-149412820D01*
X152655051Y-149412816D01*
X152659514Y-149404054D01*
X152707488Y-149353259D01*
X152775308Y-149336463D01*
X152841444Y-149358999D01*
X152880486Y-149404056D01*
X152884951Y-149412820D01*
X153009890Y-149584786D01*
X153160213Y-149735109D01*
X153332179Y-149860048D01*
X153332181Y-149860049D01*
X153332184Y-149860051D01*
X153521588Y-149956557D01*
X153723757Y-150022246D01*
X153933713Y-150055500D01*
X153933714Y-150055500D01*
X154146286Y-150055500D01*
X154146287Y-150055500D01*
X154356243Y-150022246D01*
X154558412Y-149956557D01*
X154747816Y-149860051D01*
X154834471Y-149797093D01*
X154919786Y-149735109D01*
X154919788Y-149735106D01*
X154919792Y-149735104D01*
X155070104Y-149584792D01*
X155070106Y-149584788D01*
X155070109Y-149584786D01*
X155195048Y-149412820D01*
X155195047Y-149412820D01*
X155195051Y-149412816D01*
X155199514Y-149404054D01*
X155247488Y-149353259D01*
X155315308Y-149336463D01*
X155381444Y-149358999D01*
X155420486Y-149404056D01*
X155424951Y-149412820D01*
X155549890Y-149584786D01*
X155700213Y-149735109D01*
X155872179Y-149860048D01*
X155872181Y-149860049D01*
X155872184Y-149860051D01*
X156061588Y-149956557D01*
X156263757Y-150022246D01*
X156473713Y-150055500D01*
X156473714Y-150055500D01*
X156686286Y-150055500D01*
X156686287Y-150055500D01*
X156896243Y-150022246D01*
X157098412Y-149956557D01*
X157287816Y-149860051D01*
X157374471Y-149797093D01*
X157459786Y-149735109D01*
X157459788Y-149735106D01*
X157459792Y-149735104D01*
X157610104Y-149584792D01*
X157610106Y-149584788D01*
X157610109Y-149584786D01*
X157735048Y-149412820D01*
X157735047Y-149412820D01*
X157735051Y-149412816D01*
X157739514Y-149404054D01*
X157787488Y-149353259D01*
X157855308Y-149336463D01*
X157921444Y-149358999D01*
X157960486Y-149404056D01*
X157964951Y-149412820D01*
X158089890Y-149584786D01*
X158240213Y-149735109D01*
X158412179Y-149860048D01*
X158412181Y-149860049D01*
X158412184Y-149860051D01*
X158601588Y-149956557D01*
X158803757Y-150022246D01*
X159013713Y-150055500D01*
X159013714Y-150055500D01*
X159226286Y-150055500D01*
X159226287Y-150055500D01*
X159436243Y-150022246D01*
X159638412Y-149956557D01*
X159827816Y-149860051D01*
X159914471Y-149797093D01*
X159999786Y-149735109D01*
X159999788Y-149735106D01*
X159999792Y-149735104D01*
X160150104Y-149584792D01*
X160150106Y-149584788D01*
X160150109Y-149584786D01*
X160275048Y-149412820D01*
X160275047Y-149412820D01*
X160275051Y-149412816D01*
X160279514Y-149404054D01*
X160327488Y-149353259D01*
X160395308Y-149336463D01*
X160461444Y-149358999D01*
X160500486Y-149404056D01*
X160504951Y-149412820D01*
X160629890Y-149584786D01*
X160780213Y-149735109D01*
X160952179Y-149860048D01*
X160952181Y-149860049D01*
X160952184Y-149860051D01*
X161141588Y-149956557D01*
X161343757Y-150022246D01*
X161553713Y-150055500D01*
X161553714Y-150055500D01*
X161766286Y-150055500D01*
X161766287Y-150055500D01*
X161976243Y-150022246D01*
X162178412Y-149956557D01*
X162367816Y-149860051D01*
X162454471Y-149797093D01*
X162539786Y-149735109D01*
X162539788Y-149735106D01*
X162539792Y-149735104D01*
X162690104Y-149584792D01*
X162690106Y-149584788D01*
X162690109Y-149584786D01*
X162815048Y-149412820D01*
X162815047Y-149412820D01*
X162815051Y-149412816D01*
X162911557Y-149223412D01*
X162977246Y-149021243D01*
X163010500Y-148811287D01*
X163010500Y-148598713D01*
X162977246Y-148388757D01*
X162911557Y-148186588D01*
X162815051Y-147997184D01*
X162815049Y-147997181D01*
X162815048Y-147997179D01*
X162690109Y-147825213D01*
X162539786Y-147674890D01*
X162367820Y-147549951D01*
X162178414Y-147453444D01*
X162178413Y-147453443D01*
X162178412Y-147453443D01*
X161976243Y-147387754D01*
X161976241Y-147387753D01*
X161976240Y-147387753D01*
X161814957Y-147362208D01*
X161766287Y-147354500D01*
X161553713Y-147354500D01*
X161505042Y-147362208D01*
X161343760Y-147387753D01*
X161141585Y-147453444D01*
X160952179Y-147549951D01*
X160780213Y-147674890D01*
X160629890Y-147825213D01*
X160504949Y-147997182D01*
X160500484Y-148005946D01*
X160452509Y-148056742D01*
X160384688Y-148073536D01*
X160318553Y-148050998D01*
X160279516Y-148005946D01*
X160275050Y-147997182D01*
X160150109Y-147825213D01*
X159999786Y-147674890D01*
X159827820Y-147549951D01*
X159638414Y-147453444D01*
X159638413Y-147453443D01*
X159638412Y-147453443D01*
X159436243Y-147387754D01*
X159436241Y-147387753D01*
X159436240Y-147387753D01*
X159274957Y-147362208D01*
X159226287Y-147354500D01*
X159013713Y-147354500D01*
X158965042Y-147362208D01*
X158803760Y-147387753D01*
X158601585Y-147453444D01*
X158412179Y-147549951D01*
X158240213Y-147674890D01*
X158089890Y-147825213D01*
X157964949Y-147997182D01*
X157960484Y-148005946D01*
X157912509Y-148056742D01*
X157844688Y-148073536D01*
X157778553Y-148050998D01*
X157739516Y-148005946D01*
X157735050Y-147997182D01*
X157610109Y-147825213D01*
X157459786Y-147674890D01*
X157287820Y-147549951D01*
X157098414Y-147453444D01*
X157098413Y-147453443D01*
X157098412Y-147453443D01*
X156896243Y-147387754D01*
X156896241Y-147387753D01*
X156896240Y-147387753D01*
X156734957Y-147362208D01*
X156686287Y-147354500D01*
X156473713Y-147354500D01*
X156425042Y-147362208D01*
X156263760Y-147387753D01*
X156061585Y-147453444D01*
X155872179Y-147549951D01*
X155700213Y-147674890D01*
X155549890Y-147825213D01*
X155424949Y-147997182D01*
X155420484Y-148005946D01*
X155372509Y-148056742D01*
X155304688Y-148073536D01*
X155238553Y-148050998D01*
X155199516Y-148005946D01*
X155195050Y-147997182D01*
X155070109Y-147825213D01*
X154919786Y-147674890D01*
X154747820Y-147549951D01*
X154558414Y-147453444D01*
X154558413Y-147453443D01*
X154558412Y-147453443D01*
X154356243Y-147387754D01*
X154356241Y-147387753D01*
X154356240Y-147387753D01*
X154194957Y-147362208D01*
X154146287Y-147354500D01*
X153933713Y-147354500D01*
X153885042Y-147362208D01*
X153723760Y-147387753D01*
X153521585Y-147453444D01*
X153332179Y-147549951D01*
X153160213Y-147674890D01*
X153009890Y-147825213D01*
X152884949Y-147997182D01*
X152880484Y-148005946D01*
X152832509Y-148056742D01*
X152764688Y-148073536D01*
X152698553Y-148050998D01*
X152659516Y-148005946D01*
X152655050Y-147997182D01*
X152530109Y-147825213D01*
X152379786Y-147674890D01*
X152207820Y-147549951D01*
X152018414Y-147453444D01*
X152018413Y-147453443D01*
X152018412Y-147453443D01*
X151816243Y-147387754D01*
X151816241Y-147387753D01*
X151816240Y-147387753D01*
X151654957Y-147362208D01*
X151606287Y-147354500D01*
X151393713Y-147354500D01*
X151345042Y-147362208D01*
X151183760Y-147387753D01*
X150981585Y-147453444D01*
X150792179Y-147549951D01*
X150620213Y-147674890D01*
X150469890Y-147825213D01*
X150344949Y-147997182D01*
X150340484Y-148005946D01*
X150292509Y-148056742D01*
X150224688Y-148073536D01*
X150158553Y-148050998D01*
X150119516Y-148005946D01*
X150115050Y-147997182D01*
X149990109Y-147825213D01*
X149839786Y-147674890D01*
X149667820Y-147549951D01*
X149478414Y-147453444D01*
X149478413Y-147453443D01*
X149478412Y-147453443D01*
X149276243Y-147387754D01*
X149276241Y-147387753D01*
X149276240Y-147387753D01*
X149114957Y-147362208D01*
X149066287Y-147354500D01*
X148853713Y-147354500D01*
X148805042Y-147362208D01*
X148643760Y-147387753D01*
X148441585Y-147453444D01*
X148252179Y-147549951D01*
X148080213Y-147674890D01*
X147929890Y-147825213D01*
X147804949Y-147997182D01*
X147800484Y-148005946D01*
X147752509Y-148056742D01*
X147684688Y-148073536D01*
X147618553Y-148050998D01*
X147579516Y-148005946D01*
X147575050Y-147997182D01*
X147450109Y-147825213D01*
X147299786Y-147674890D01*
X147127820Y-147549951D01*
X146938414Y-147453444D01*
X146938413Y-147453443D01*
X146938412Y-147453443D01*
X146736243Y-147387754D01*
X146736241Y-147387753D01*
X146736240Y-147387753D01*
X146574957Y-147362208D01*
X146526287Y-147354500D01*
X146313713Y-147354500D01*
X146265042Y-147362208D01*
X146103760Y-147387753D01*
X145901585Y-147453444D01*
X145712179Y-147549951D01*
X145540215Y-147674889D01*
X145426285Y-147788819D01*
X145364962Y-147822303D01*
X145295270Y-147817319D01*
X145239337Y-147775447D01*
X145222422Y-147744470D01*
X145173354Y-147612913D01*
X145173350Y-147612906D01*
X145087190Y-147497812D01*
X145087187Y-147497809D01*
X144972093Y-147411649D01*
X144972086Y-147411645D01*
X144837379Y-147361403D01*
X144837372Y-147361401D01*
X144777844Y-147355000D01*
X144130000Y-147355000D01*
X144130000Y-148271988D01*
X144072993Y-148239075D01*
X143945826Y-148205000D01*
X143814174Y-148205000D01*
X143687007Y-148239075D01*
X143630000Y-148271988D01*
X143630000Y-147355000D01*
X142982155Y-147355000D01*
X142922627Y-147361401D01*
X142922620Y-147361403D01*
X142787913Y-147411645D01*
X142787906Y-147411649D01*
X142672812Y-147497809D01*
X142672809Y-147497812D01*
X142586649Y-147612906D01*
X142586645Y-147612913D01*
X142536403Y-147747620D01*
X142536401Y-147747627D01*
X142530000Y-147807155D01*
X137700500Y-147807155D01*
X137700500Y-143152135D01*
X143619500Y-143152135D01*
X143619500Y-144847870D01*
X143619501Y-144847876D01*
X143625908Y-144907483D01*
X143676202Y-145042328D01*
X143676206Y-145042335D01*
X143762452Y-145157544D01*
X143762455Y-145157547D01*
X143877664Y-145243793D01*
X143877671Y-145243797D01*
X144012517Y-145294091D01*
X144012516Y-145294091D01*
X144019444Y-145294835D01*
X144072127Y-145300500D01*
X145767872Y-145300499D01*
X145827483Y-145294091D01*
X145962331Y-145243796D01*
X146077546Y-145157546D01*
X146163796Y-145042331D01*
X146214091Y-144907483D01*
X146218061Y-144870556D01*
X146244796Y-144806011D01*
X146302188Y-144766161D01*
X146372013Y-144763666D01*
X146432102Y-144799317D01*
X146441667Y-144810929D01*
X146468032Y-144847217D01*
X146612786Y-144991971D01*
X146767749Y-145104556D01*
X146778390Y-145112287D01*
X146867212Y-145157544D01*
X146960776Y-145205218D01*
X146960778Y-145205218D01*
X146960781Y-145205220D01*
X147065137Y-145239127D01*
X147155465Y-145268477D01*
X147256557Y-145284488D01*
X147357648Y-145300500D01*
X147357649Y-145300500D01*
X147562351Y-145300500D01*
X147562352Y-145300500D01*
X147764534Y-145268477D01*
X147959219Y-145205220D01*
X148141610Y-145112287D01*
X148237901Y-145042328D01*
X148307213Y-144991971D01*
X148307215Y-144991968D01*
X148307219Y-144991966D01*
X148451966Y-144847219D01*
X148451968Y-144847215D01*
X148451971Y-144847213D01*
X148572284Y-144681614D01*
X148572285Y-144681613D01*
X148572287Y-144681610D01*
X148619516Y-144588917D01*
X148667489Y-144538123D01*
X148735310Y-144521328D01*
X148801445Y-144543865D01*
X148840485Y-144588919D01*
X148887715Y-144681614D01*
X149008028Y-144847213D01*
X149152786Y-144991971D01*
X149307749Y-145104556D01*
X149318390Y-145112287D01*
X149407212Y-145157544D01*
X149500776Y-145205218D01*
X149500778Y-145205218D01*
X149500781Y-145205220D01*
X149605137Y-145239127D01*
X149695465Y-145268477D01*
X149796557Y-145284488D01*
X149897648Y-145300500D01*
X149897649Y-145300500D01*
X150102351Y-145300500D01*
X150102352Y-145300500D01*
X150304534Y-145268477D01*
X150499219Y-145205220D01*
X150681610Y-145112287D01*
X150777901Y-145042328D01*
X150847213Y-144991971D01*
X150847215Y-144991968D01*
X150847219Y-144991966D01*
X150991966Y-144847219D01*
X150991968Y-144847215D01*
X150991971Y-144847213D01*
X151112284Y-144681614D01*
X151112285Y-144681613D01*
X151112287Y-144681610D01*
X151159516Y-144588917D01*
X151207489Y-144538123D01*
X151275310Y-144521328D01*
X151341445Y-144543865D01*
X151380485Y-144588919D01*
X151427715Y-144681614D01*
X151548028Y-144847213D01*
X151692786Y-144991971D01*
X151847749Y-145104556D01*
X151858390Y-145112287D01*
X151947212Y-145157544D01*
X152040776Y-145205218D01*
X152040778Y-145205218D01*
X152040781Y-145205220D01*
X152145137Y-145239127D01*
X152235465Y-145268477D01*
X152336557Y-145284488D01*
X152437648Y-145300500D01*
X152437649Y-145300500D01*
X152642351Y-145300500D01*
X152642352Y-145300500D01*
X152844534Y-145268477D01*
X153039219Y-145205220D01*
X153221610Y-145112287D01*
X153317901Y-145042328D01*
X153387213Y-144991971D01*
X153387215Y-144991968D01*
X153387219Y-144991966D01*
X153531966Y-144847219D01*
X153531968Y-144847215D01*
X153531971Y-144847213D01*
X153652284Y-144681614D01*
X153652285Y-144681613D01*
X153652287Y-144681610D01*
X153699516Y-144588917D01*
X153747489Y-144538123D01*
X153815310Y-144521328D01*
X153881445Y-144543865D01*
X153920485Y-144588919D01*
X153967715Y-144681614D01*
X154088028Y-144847213D01*
X154232786Y-144991971D01*
X154387749Y-145104556D01*
X154398390Y-145112287D01*
X154487212Y-145157544D01*
X154580776Y-145205218D01*
X154580778Y-145205218D01*
X154580781Y-145205220D01*
X154685137Y-145239127D01*
X154775465Y-145268477D01*
X154876557Y-145284488D01*
X154977648Y-145300500D01*
X154977649Y-145300500D01*
X155182351Y-145300500D01*
X155182352Y-145300500D01*
X155384534Y-145268477D01*
X155579219Y-145205220D01*
X155761610Y-145112287D01*
X155857901Y-145042328D01*
X155927213Y-144991971D01*
X155927215Y-144991968D01*
X155927219Y-144991966D01*
X156071966Y-144847219D01*
X156071968Y-144847215D01*
X156071971Y-144847213D01*
X156192284Y-144681614D01*
X156192285Y-144681613D01*
X156192287Y-144681610D01*
X156239516Y-144588917D01*
X156287489Y-144538123D01*
X156355310Y-144521328D01*
X156421445Y-144543865D01*
X156460485Y-144588919D01*
X156507715Y-144681614D01*
X156628028Y-144847213D01*
X156772786Y-144991971D01*
X156927749Y-145104556D01*
X156938390Y-145112287D01*
X157027212Y-145157544D01*
X157120776Y-145205218D01*
X157120778Y-145205218D01*
X157120781Y-145205220D01*
X157225137Y-145239127D01*
X157315465Y-145268477D01*
X157416557Y-145284488D01*
X157517648Y-145300500D01*
X157517649Y-145300500D01*
X157722351Y-145300500D01*
X157722352Y-145300500D01*
X157924534Y-145268477D01*
X158119219Y-145205220D01*
X158301610Y-145112287D01*
X158397901Y-145042328D01*
X158467213Y-144991971D01*
X158467215Y-144991968D01*
X158467219Y-144991966D01*
X158611966Y-144847219D01*
X158611968Y-144847215D01*
X158611971Y-144847213D01*
X158732284Y-144681614D01*
X158732285Y-144681613D01*
X158732287Y-144681610D01*
X158779516Y-144588917D01*
X158827489Y-144538123D01*
X158895310Y-144521328D01*
X158961445Y-144543865D01*
X159000485Y-144588919D01*
X159047715Y-144681614D01*
X159168028Y-144847213D01*
X159312786Y-144991971D01*
X159467749Y-145104556D01*
X159478390Y-145112287D01*
X159567212Y-145157544D01*
X159660776Y-145205218D01*
X159660778Y-145205218D01*
X159660781Y-145205220D01*
X159765137Y-145239127D01*
X159855465Y-145268477D01*
X159956557Y-145284488D01*
X160057648Y-145300500D01*
X160057649Y-145300500D01*
X160262351Y-145300500D01*
X160262352Y-145300500D01*
X160464534Y-145268477D01*
X160659219Y-145205220D01*
X160841610Y-145112287D01*
X160937901Y-145042328D01*
X161007213Y-144991971D01*
X161007215Y-144991968D01*
X161007219Y-144991966D01*
X161151966Y-144847219D01*
X161151968Y-144847215D01*
X161151971Y-144847213D01*
X161212670Y-144763666D01*
X161272287Y-144681610D01*
X161365220Y-144499219D01*
X161428477Y-144304534D01*
X161460500Y-144102352D01*
X161460500Y-143897648D01*
X161428477Y-143695466D01*
X161365220Y-143500781D01*
X161365218Y-143500778D01*
X161365218Y-143500776D01*
X161319515Y-143411080D01*
X161272287Y-143318390D01*
X161264556Y-143307749D01*
X161151971Y-143152786D01*
X161007213Y-143008028D01*
X160841613Y-142887715D01*
X160841612Y-142887714D01*
X160841610Y-142887713D01*
X160784653Y-142858691D01*
X160659223Y-142794781D01*
X160464534Y-142731522D01*
X160289995Y-142703878D01*
X160262352Y-142699500D01*
X160057648Y-142699500D01*
X160033329Y-142703351D01*
X159855465Y-142731522D01*
X159660776Y-142794781D01*
X159478386Y-142887715D01*
X159312786Y-143008028D01*
X159168028Y-143152786D01*
X159047715Y-143318386D01*
X159000485Y-143411080D01*
X158952510Y-143461876D01*
X158884689Y-143478671D01*
X158818554Y-143456134D01*
X158779515Y-143411080D01*
X158778883Y-143409840D01*
X158732287Y-143318390D01*
X158724556Y-143307749D01*
X158611971Y-143152786D01*
X158467213Y-143008028D01*
X158301613Y-142887715D01*
X158301612Y-142887714D01*
X158301610Y-142887713D01*
X158244653Y-142858691D01*
X158119223Y-142794781D01*
X157924534Y-142731522D01*
X157749995Y-142703878D01*
X157722352Y-142699500D01*
X157517648Y-142699500D01*
X157493329Y-142703351D01*
X157315465Y-142731522D01*
X157120776Y-142794781D01*
X156938386Y-142887715D01*
X156772786Y-143008028D01*
X156628028Y-143152786D01*
X156507715Y-143318386D01*
X156460485Y-143411080D01*
X156412510Y-143461876D01*
X156344689Y-143478671D01*
X156278554Y-143456134D01*
X156239515Y-143411080D01*
X156238883Y-143409840D01*
X156192287Y-143318390D01*
X156184556Y-143307749D01*
X156071971Y-143152786D01*
X155927213Y-143008028D01*
X155761613Y-142887715D01*
X155761612Y-142887714D01*
X155761610Y-142887713D01*
X155704653Y-142858691D01*
X155579223Y-142794781D01*
X155384534Y-142731522D01*
X155209995Y-142703878D01*
X155182352Y-142699500D01*
X154977648Y-142699500D01*
X154953329Y-142703351D01*
X154775465Y-142731522D01*
X154580776Y-142794781D01*
X154398386Y-142887715D01*
X154232786Y-143008028D01*
X154088028Y-143152786D01*
X153967715Y-143318386D01*
X153920485Y-143411080D01*
X153872510Y-143461876D01*
X153804689Y-143478671D01*
X153738554Y-143456134D01*
X153699515Y-143411080D01*
X153698883Y-143409840D01*
X153652287Y-143318390D01*
X153644556Y-143307749D01*
X153531971Y-143152786D01*
X153387213Y-143008028D01*
X153221613Y-142887715D01*
X153221612Y-142887714D01*
X153221610Y-142887713D01*
X153164653Y-142858691D01*
X153039223Y-142794781D01*
X152844534Y-142731522D01*
X152669995Y-142703878D01*
X152642352Y-142699500D01*
X152437648Y-142699500D01*
X152413329Y-142703351D01*
X152235465Y-142731522D01*
X152040776Y-142794781D01*
X151858386Y-142887715D01*
X151692786Y-143008028D01*
X151548028Y-143152786D01*
X151427715Y-143318386D01*
X151380485Y-143411080D01*
X151332510Y-143461876D01*
X151264689Y-143478671D01*
X151198554Y-143456134D01*
X151159515Y-143411080D01*
X151158883Y-143409840D01*
X151112287Y-143318390D01*
X151104556Y-143307749D01*
X150991971Y-143152786D01*
X150847213Y-143008028D01*
X150681613Y-142887715D01*
X150681612Y-142887714D01*
X150681610Y-142887713D01*
X150624653Y-142858691D01*
X150499223Y-142794781D01*
X150304534Y-142731522D01*
X150129995Y-142703878D01*
X150102352Y-142699500D01*
X149897648Y-142699500D01*
X149873329Y-142703351D01*
X149695465Y-142731522D01*
X149500776Y-142794781D01*
X149318386Y-142887715D01*
X149152786Y-143008028D01*
X149008028Y-143152786D01*
X148887715Y-143318386D01*
X148840485Y-143411080D01*
X148792510Y-143461876D01*
X148724689Y-143478671D01*
X148658554Y-143456134D01*
X148619515Y-143411080D01*
X148618883Y-143409840D01*
X148572287Y-143318390D01*
X148564556Y-143307749D01*
X148451971Y-143152786D01*
X148307213Y-143008028D01*
X148141613Y-142887715D01*
X148141612Y-142887714D01*
X148141610Y-142887713D01*
X148084653Y-142858691D01*
X147959223Y-142794781D01*
X147764534Y-142731522D01*
X147589995Y-142703878D01*
X147562352Y-142699500D01*
X147357648Y-142699500D01*
X147333329Y-142703351D01*
X147155465Y-142731522D01*
X146960776Y-142794781D01*
X146778386Y-142887715D01*
X146612786Y-143008028D01*
X146468032Y-143152782D01*
X146441668Y-143189070D01*
X146386338Y-143231735D01*
X146316724Y-143237714D01*
X146254929Y-143205108D01*
X146220572Y-143144269D01*
X146218060Y-143129438D01*
X146217640Y-143125533D01*
X146214091Y-143092517D01*
X146163796Y-142957669D01*
X146163795Y-142957668D01*
X146163793Y-142957664D01*
X146077547Y-142842455D01*
X146077544Y-142842452D01*
X145962335Y-142756206D01*
X145962328Y-142756202D01*
X145827482Y-142705908D01*
X145827483Y-142705908D01*
X145767883Y-142699501D01*
X145767881Y-142699500D01*
X145767873Y-142699500D01*
X145767864Y-142699500D01*
X144072129Y-142699500D01*
X144072123Y-142699501D01*
X144012516Y-142705908D01*
X143877671Y-142756202D01*
X143877664Y-142756206D01*
X143762455Y-142842452D01*
X143762452Y-142842455D01*
X143676206Y-142957664D01*
X143676202Y-142957671D01*
X143625908Y-143092517D01*
X143619501Y-143152116D01*
X143619500Y-143152135D01*
X137700500Y-143152135D01*
X137700500Y-137877973D01*
X161449500Y-137877973D01*
X161449500Y-138122026D01*
X161487678Y-138363072D01*
X161563097Y-138595187D01*
X161673896Y-138812642D01*
X161817339Y-139010076D01*
X161817343Y-139010081D01*
X161989918Y-139182656D01*
X161989923Y-139182660D01*
X162162136Y-139307779D01*
X162187361Y-139326106D01*
X162404815Y-139436904D01*
X162636924Y-139512321D01*
X162877973Y-139550500D01*
X162877974Y-139550500D01*
X163122026Y-139550500D01*
X163122027Y-139550500D01*
X163363076Y-139512321D01*
X163595185Y-139436904D01*
X163812639Y-139326106D01*
X164010083Y-139182655D01*
X164182655Y-139010083D01*
X164326106Y-138812639D01*
X164436904Y-138595185D01*
X164512321Y-138363076D01*
X164550500Y-138122027D01*
X164550500Y-137877973D01*
X164512321Y-137636924D01*
X164436904Y-137404815D01*
X164326106Y-137187361D01*
X164271560Y-137112284D01*
X164182660Y-136989923D01*
X164182656Y-136989918D01*
X164010081Y-136817343D01*
X164010076Y-136817339D01*
X163812642Y-136673896D01*
X163812641Y-136673895D01*
X163812639Y-136673894D01*
X163595185Y-136563096D01*
X163363076Y-136487679D01*
X163363074Y-136487678D01*
X163363072Y-136487678D01*
X163194769Y-136461021D01*
X163122027Y-136449500D01*
X162877973Y-136449500D01*
X162822093Y-136458350D01*
X162636927Y-136487678D01*
X162404812Y-136563097D01*
X162187357Y-136673896D01*
X161989923Y-136817339D01*
X161989918Y-136817343D01*
X161817343Y-136989918D01*
X161817339Y-136989923D01*
X161673896Y-137187357D01*
X161563097Y-137404812D01*
X161487678Y-137636927D01*
X161449500Y-137877973D01*
X137700500Y-137877973D01*
X137700500Y-107459983D01*
X146039500Y-107459983D01*
X146039500Y-108660001D01*
X146039501Y-108660018D01*
X146050000Y-108762796D01*
X146050001Y-108762799D01*
X146097856Y-108907213D01*
X146105186Y-108929334D01*
X146197288Y-109078656D01*
X146321344Y-109202712D01*
X146470666Y-109294814D01*
X146552570Y-109321954D01*
X146610015Y-109361727D01*
X146636838Y-109426243D01*
X146624523Y-109495018D01*
X146586451Y-109539978D01*
X146492787Y-109608028D01*
X146492782Y-109608032D01*
X146348028Y-109752786D01*
X146227715Y-109918386D01*
X146134781Y-110100776D01*
X146071522Y-110295465D01*
X146039500Y-110497648D01*
X146039500Y-110702351D01*
X146071522Y-110904534D01*
X146134781Y-111099223D01*
X146227715Y-111281613D01*
X146348028Y-111447213D01*
X146492786Y-111591971D01*
X146647749Y-111704556D01*
X146658390Y-111712287D01*
X146749840Y-111758883D01*
X146751080Y-111759515D01*
X146801876Y-111807490D01*
X146818671Y-111875311D01*
X146796134Y-111941446D01*
X146751080Y-111980485D01*
X146658386Y-112027715D01*
X146492786Y-112148028D01*
X146348028Y-112292786D01*
X146227715Y-112458386D01*
X146134781Y-112640776D01*
X146071522Y-112835465D01*
X146039500Y-113037648D01*
X146039500Y-113242351D01*
X146071522Y-113444534D01*
X146134781Y-113639223D01*
X146198691Y-113764653D01*
X146226072Y-113818390D01*
X146227715Y-113821613D01*
X146348028Y-113987213D01*
X146492786Y-114131971D01*
X146647749Y-114244556D01*
X146658390Y-114252287D01*
X146749840Y-114298883D01*
X146751080Y-114299515D01*
X146801876Y-114347490D01*
X146818671Y-114415311D01*
X146796134Y-114481446D01*
X146751080Y-114520485D01*
X146658386Y-114567715D01*
X146492786Y-114688028D01*
X146348028Y-114832786D01*
X146227715Y-114998386D01*
X146134781Y-115180776D01*
X146071522Y-115375465D01*
X146039500Y-115577648D01*
X146039500Y-115782351D01*
X146071522Y-115984534D01*
X146134781Y-116179223D01*
X146227715Y-116361613D01*
X146348028Y-116527213D01*
X146492786Y-116671971D01*
X146647749Y-116784556D01*
X146658390Y-116792287D01*
X146749840Y-116838883D01*
X146751080Y-116839515D01*
X146801876Y-116887490D01*
X146818671Y-116955311D01*
X146796134Y-117021446D01*
X146751080Y-117060485D01*
X146658386Y-117107715D01*
X146492786Y-117228028D01*
X146348028Y-117372786D01*
X146227715Y-117538386D01*
X146134781Y-117720776D01*
X146071522Y-117915465D01*
X146039500Y-118117648D01*
X146039500Y-118322351D01*
X146071522Y-118524534D01*
X146134781Y-118719223D01*
X146227715Y-118901613D01*
X146348028Y-119067213D01*
X146492786Y-119211971D01*
X146647749Y-119324556D01*
X146658390Y-119332287D01*
X146749840Y-119378883D01*
X146751080Y-119379515D01*
X146801876Y-119427490D01*
X146818671Y-119495311D01*
X146796134Y-119561446D01*
X146751080Y-119600485D01*
X146658386Y-119647715D01*
X146492786Y-119768028D01*
X146348028Y-119912786D01*
X146227715Y-120078386D01*
X146134781Y-120260776D01*
X146071522Y-120455465D01*
X146039500Y-120657648D01*
X146039500Y-120862351D01*
X146071522Y-121064534D01*
X146134781Y-121259223D01*
X146227715Y-121441613D01*
X146348028Y-121607213D01*
X146492786Y-121751971D01*
X146647749Y-121864556D01*
X146658390Y-121872287D01*
X146749840Y-121918883D01*
X146751080Y-121919515D01*
X146801876Y-121967490D01*
X146818671Y-122035311D01*
X146796134Y-122101446D01*
X146751080Y-122140485D01*
X146658386Y-122187715D01*
X146492786Y-122308028D01*
X146348028Y-122452786D01*
X146227715Y-122618386D01*
X146134781Y-122800776D01*
X146071522Y-122995465D01*
X146039500Y-123197648D01*
X146039500Y-123402351D01*
X146071522Y-123604534D01*
X146134781Y-123799223D01*
X146227715Y-123981613D01*
X146348028Y-124147213D01*
X146492786Y-124291971D01*
X146647749Y-124404556D01*
X146658390Y-124412287D01*
X146749840Y-124458883D01*
X146751080Y-124459515D01*
X146801876Y-124507490D01*
X146818671Y-124575311D01*
X146796134Y-124641446D01*
X146751080Y-124680485D01*
X146658386Y-124727715D01*
X146492786Y-124848028D01*
X146348028Y-124992786D01*
X146227715Y-125158386D01*
X146134781Y-125340776D01*
X146071522Y-125535465D01*
X146039500Y-125737648D01*
X146039500Y-125942351D01*
X146071522Y-126144534D01*
X146134781Y-126339223D01*
X146227715Y-126521613D01*
X146348028Y-126687213D01*
X146492786Y-126831971D01*
X146647749Y-126944556D01*
X146658390Y-126952287D01*
X146749840Y-126998883D01*
X146751080Y-126999515D01*
X146801876Y-127047490D01*
X146818671Y-127115311D01*
X146796134Y-127181446D01*
X146751080Y-127220485D01*
X146658386Y-127267715D01*
X146492786Y-127388028D01*
X146348028Y-127532786D01*
X146227715Y-127698386D01*
X146134781Y-127880776D01*
X146071522Y-128075465D01*
X146039500Y-128277648D01*
X146039500Y-128482351D01*
X146071522Y-128684534D01*
X146134781Y-128879223D01*
X146227715Y-129061613D01*
X146348028Y-129227213D01*
X146492786Y-129371971D01*
X146647749Y-129484556D01*
X146658390Y-129492287D01*
X146749840Y-129538883D01*
X146751080Y-129539515D01*
X146801876Y-129587490D01*
X146818671Y-129655311D01*
X146796134Y-129721446D01*
X146751080Y-129760485D01*
X146658386Y-129807715D01*
X146492786Y-129928028D01*
X146348028Y-130072786D01*
X146227715Y-130238386D01*
X146134781Y-130420776D01*
X146071522Y-130615465D01*
X146039500Y-130817648D01*
X146039500Y-131022351D01*
X146071522Y-131224534D01*
X146134781Y-131419223D01*
X146227715Y-131601613D01*
X146348028Y-131767213D01*
X146492786Y-131911971D01*
X146647749Y-132024556D01*
X146658390Y-132032287D01*
X146749840Y-132078883D01*
X146751080Y-132079515D01*
X146801876Y-132127490D01*
X146818671Y-132195311D01*
X146796134Y-132261446D01*
X146751080Y-132300485D01*
X146658386Y-132347715D01*
X146492786Y-132468028D01*
X146348028Y-132612786D01*
X146227715Y-132778386D01*
X146134781Y-132960776D01*
X146071522Y-133155465D01*
X146039500Y-133357648D01*
X146039500Y-133562351D01*
X146071522Y-133764534D01*
X146134781Y-133959223D01*
X146227715Y-134141613D01*
X146348028Y-134307213D01*
X146492786Y-134451971D01*
X146647749Y-134564556D01*
X146658390Y-134572287D01*
X146749840Y-134618883D01*
X146751080Y-134619515D01*
X146801876Y-134667490D01*
X146818671Y-134735311D01*
X146796134Y-134801446D01*
X146751080Y-134840485D01*
X146658386Y-134887715D01*
X146492786Y-135008028D01*
X146348028Y-135152786D01*
X146227715Y-135318386D01*
X146134781Y-135500776D01*
X146071522Y-135695465D01*
X146039500Y-135897648D01*
X146039500Y-136102351D01*
X146071522Y-136304534D01*
X146134781Y-136499223D01*
X146198691Y-136624653D01*
X146223781Y-136673894D01*
X146227715Y-136681613D01*
X146348028Y-136847213D01*
X146492786Y-136991971D01*
X146647749Y-137104556D01*
X146658390Y-137112287D01*
X146774607Y-137171503D01*
X146840776Y-137205218D01*
X146840778Y-137205218D01*
X146840781Y-137205220D01*
X146945137Y-137239127D01*
X147035465Y-137268477D01*
X147136557Y-137284488D01*
X147237648Y-137300500D01*
X147237649Y-137300500D01*
X147442351Y-137300500D01*
X147442352Y-137300500D01*
X147644534Y-137268477D01*
X147839219Y-137205220D01*
X148021610Y-137112287D01*
X148114590Y-137044732D01*
X148187213Y-136991971D01*
X148187215Y-136991968D01*
X148187219Y-136991966D01*
X148331966Y-136847219D01*
X148331968Y-136847215D01*
X148331971Y-136847213D01*
X148384732Y-136774590D01*
X148452287Y-136681610D01*
X148545220Y-136499219D01*
X148608477Y-136304534D01*
X148640500Y-136102352D01*
X148640500Y-135897648D01*
X148608477Y-135695466D01*
X148545220Y-135500781D01*
X148545218Y-135500778D01*
X148545218Y-135500776D01*
X148511503Y-135434607D01*
X148452287Y-135318390D01*
X148444556Y-135307749D01*
X148331971Y-135152786D01*
X148187213Y-135008028D01*
X148021614Y-134887715D01*
X148015006Y-134884348D01*
X147928917Y-134840483D01*
X147878123Y-134792511D01*
X147861328Y-134724690D01*
X147883865Y-134658555D01*
X147928917Y-134619516D01*
X148021610Y-134572287D01*
X148042770Y-134556913D01*
X148187213Y-134451971D01*
X148187215Y-134451968D01*
X148187219Y-134451966D01*
X148331966Y-134307219D01*
X148331968Y-134307215D01*
X148331971Y-134307213D01*
X148384732Y-134234590D01*
X148452287Y-134141610D01*
X148545220Y-133959219D01*
X148608477Y-133764534D01*
X148640500Y-133562352D01*
X148640500Y-133357648D01*
X148608477Y-133155466D01*
X148545220Y-132960781D01*
X148545218Y-132960778D01*
X148545218Y-132960776D01*
X148511503Y-132894607D01*
X148452287Y-132778390D01*
X148444556Y-132767749D01*
X148331971Y-132612786D01*
X148187213Y-132468028D01*
X148021614Y-132347715D01*
X148015006Y-132344348D01*
X147928917Y-132300483D01*
X147878123Y-132252511D01*
X147861328Y-132184690D01*
X147883865Y-132118555D01*
X147928917Y-132079516D01*
X148021610Y-132032287D01*
X148042770Y-132016913D01*
X148187213Y-131911971D01*
X148187215Y-131911968D01*
X148187219Y-131911966D01*
X148331966Y-131767219D01*
X148331968Y-131767215D01*
X148331971Y-131767213D01*
X148384732Y-131694590D01*
X148452287Y-131601610D01*
X148545220Y-131419219D01*
X148608477Y-131224534D01*
X148640500Y-131022352D01*
X148640500Y-130817648D01*
X148608477Y-130615466D01*
X148545220Y-130420781D01*
X148545218Y-130420778D01*
X148545218Y-130420776D01*
X148511503Y-130354607D01*
X148452287Y-130238390D01*
X148444556Y-130227749D01*
X148331971Y-130072786D01*
X148187213Y-129928028D01*
X148021614Y-129807715D01*
X148015006Y-129804348D01*
X147928917Y-129760483D01*
X147878123Y-129712511D01*
X147861328Y-129644690D01*
X147883865Y-129578555D01*
X147928917Y-129539516D01*
X148021610Y-129492287D01*
X148042770Y-129476913D01*
X148187213Y-129371971D01*
X148187215Y-129371968D01*
X148187219Y-129371966D01*
X148331966Y-129227219D01*
X148331968Y-129227215D01*
X148331971Y-129227213D01*
X148384732Y-129154590D01*
X148452287Y-129061610D01*
X148545220Y-128879219D01*
X148608477Y-128684534D01*
X148640500Y-128482352D01*
X148640500Y-128277648D01*
X148608477Y-128075466D01*
X148545220Y-127880781D01*
X148545218Y-127880778D01*
X148545218Y-127880776D01*
X148511503Y-127814607D01*
X148452287Y-127698390D01*
X148444556Y-127687749D01*
X148331971Y-127532786D01*
X148187213Y-127388028D01*
X148021614Y-127267715D01*
X148015006Y-127264348D01*
X147928917Y-127220483D01*
X147878123Y-127172511D01*
X147861328Y-127104690D01*
X147883865Y-127038555D01*
X147928917Y-126999516D01*
X148021610Y-126952287D01*
X148042770Y-126936913D01*
X148187213Y-126831971D01*
X148187215Y-126831968D01*
X148187219Y-126831966D01*
X148331966Y-126687219D01*
X148331968Y-126687215D01*
X148331971Y-126687213D01*
X148384732Y-126614590D01*
X148452287Y-126521610D01*
X148545220Y-126339219D01*
X148608477Y-126144534D01*
X148640500Y-125942352D01*
X148640500Y-125737648D01*
X148608477Y-125535466D01*
X148545220Y-125340781D01*
X148545218Y-125340778D01*
X148545218Y-125340776D01*
X148511503Y-125274607D01*
X148452287Y-125158390D01*
X148444556Y-125147749D01*
X148331971Y-124992786D01*
X148187213Y-124848028D01*
X148021614Y-124727715D01*
X148015006Y-124724348D01*
X147928917Y-124680483D01*
X147878123Y-124632511D01*
X147861328Y-124564690D01*
X147883865Y-124498555D01*
X147928917Y-124459516D01*
X148021610Y-124412287D01*
X148042770Y-124396913D01*
X148187213Y-124291971D01*
X148187215Y-124291968D01*
X148187219Y-124291966D01*
X148331966Y-124147219D01*
X148331968Y-124147215D01*
X148331971Y-124147213D01*
X148384732Y-124074590D01*
X148452287Y-123981610D01*
X148545220Y-123799219D01*
X148608477Y-123604534D01*
X148640500Y-123402352D01*
X148640500Y-123197648D01*
X148608477Y-122995466D01*
X148545220Y-122800781D01*
X148545218Y-122800778D01*
X148545218Y-122800776D01*
X148511503Y-122734607D01*
X148452287Y-122618390D01*
X148444556Y-122607749D01*
X148331971Y-122452786D01*
X148187213Y-122308028D01*
X148021614Y-122187715D01*
X148015006Y-122184348D01*
X147928917Y-122140483D01*
X147878123Y-122092511D01*
X147861328Y-122024690D01*
X147883865Y-121958555D01*
X147928917Y-121919516D01*
X148021610Y-121872287D01*
X148042770Y-121856913D01*
X148187213Y-121751971D01*
X148187215Y-121751968D01*
X148187219Y-121751966D01*
X148331966Y-121607219D01*
X148331968Y-121607215D01*
X148331971Y-121607213D01*
X148384732Y-121534590D01*
X148452287Y-121441610D01*
X148545220Y-121259219D01*
X148608477Y-121064534D01*
X148640500Y-120862352D01*
X148640500Y-120657648D01*
X148608477Y-120455466D01*
X148545220Y-120260781D01*
X148545218Y-120260778D01*
X148545218Y-120260776D01*
X148511503Y-120194607D01*
X148452287Y-120078390D01*
X148444556Y-120067749D01*
X148331971Y-119912786D01*
X148187213Y-119768028D01*
X148021614Y-119647715D01*
X148015006Y-119644348D01*
X147928917Y-119600483D01*
X147878123Y-119552511D01*
X147861328Y-119484690D01*
X147883865Y-119418555D01*
X147928917Y-119379516D01*
X148021610Y-119332287D01*
X148042770Y-119316913D01*
X148187213Y-119211971D01*
X148187215Y-119211968D01*
X148187219Y-119211966D01*
X148331966Y-119067219D01*
X148331968Y-119067215D01*
X148331971Y-119067213D01*
X148384732Y-118994590D01*
X148452287Y-118901610D01*
X148545220Y-118719219D01*
X148608477Y-118524534D01*
X148640500Y-118322352D01*
X148640500Y-118117648D01*
X148608477Y-117915466D01*
X148545220Y-117720781D01*
X148545218Y-117720778D01*
X148545218Y-117720776D01*
X148511503Y-117654607D01*
X148452287Y-117538390D01*
X148444556Y-117527749D01*
X148331971Y-117372786D01*
X148187213Y-117228028D01*
X148021614Y-117107715D01*
X148015006Y-117104348D01*
X147928917Y-117060483D01*
X147878123Y-117012511D01*
X147861328Y-116944690D01*
X147883865Y-116878555D01*
X147928917Y-116839516D01*
X148021610Y-116792287D01*
X148042770Y-116776913D01*
X148187213Y-116671971D01*
X148187215Y-116671968D01*
X148187219Y-116671966D01*
X148331966Y-116527219D01*
X148331968Y-116527215D01*
X148331971Y-116527213D01*
X148384732Y-116454590D01*
X148452287Y-116361610D01*
X148545220Y-116179219D01*
X148608477Y-115984534D01*
X148640500Y-115782352D01*
X148640500Y-115577648D01*
X148608477Y-115375466D01*
X148545220Y-115180781D01*
X148545218Y-115180778D01*
X148545218Y-115180776D01*
X148511503Y-115114607D01*
X148452287Y-114998390D01*
X148444556Y-114987749D01*
X148331971Y-114832786D01*
X148187213Y-114688028D01*
X148021614Y-114567715D01*
X148015006Y-114564348D01*
X147928917Y-114520483D01*
X147878123Y-114472511D01*
X147861328Y-114404690D01*
X147883865Y-114338555D01*
X147928917Y-114299516D01*
X148021610Y-114252287D01*
X148099818Y-114195466D01*
X148187213Y-114131971D01*
X148187215Y-114131968D01*
X148187219Y-114131966D01*
X148331966Y-113987219D01*
X148331968Y-113987215D01*
X148331971Y-113987213D01*
X148384732Y-113914590D01*
X148452287Y-113821610D01*
X148545220Y-113639219D01*
X148608477Y-113444534D01*
X148640500Y-113242352D01*
X148640500Y-113037648D01*
X148608477Y-112835466D01*
X148545220Y-112640781D01*
X148545218Y-112640778D01*
X148545218Y-112640776D01*
X148511503Y-112574607D01*
X148452287Y-112458390D01*
X148444556Y-112447749D01*
X148331971Y-112292786D01*
X148187213Y-112148028D01*
X148021614Y-112027715D01*
X148015006Y-112024348D01*
X147928917Y-111980483D01*
X147878123Y-111932511D01*
X147861328Y-111864690D01*
X147883865Y-111798555D01*
X147928917Y-111759516D01*
X148021610Y-111712287D01*
X148042770Y-111696913D01*
X148187213Y-111591971D01*
X148187215Y-111591968D01*
X148187219Y-111591966D01*
X148331966Y-111447219D01*
X148331968Y-111447215D01*
X148331971Y-111447213D01*
X148384732Y-111374590D01*
X148452287Y-111281610D01*
X148545220Y-111099219D01*
X148608477Y-110904534D01*
X148640500Y-110702352D01*
X148640500Y-110497648D01*
X148608477Y-110295466D01*
X148545220Y-110100781D01*
X148545218Y-110100778D01*
X148545218Y-110100776D01*
X148511503Y-110034607D01*
X148452287Y-109918390D01*
X148444556Y-109907749D01*
X148331971Y-109752786D01*
X148187219Y-109608034D01*
X148179397Y-109602351D01*
X148093547Y-109539978D01*
X148050882Y-109484649D01*
X148044903Y-109415036D01*
X148077508Y-109353240D01*
X148127426Y-109321955D01*
X148209334Y-109294814D01*
X148358656Y-109202712D01*
X148482712Y-109078656D01*
X148574814Y-108929334D01*
X148629999Y-108762797D01*
X148640500Y-108660009D01*
X148640499Y-107957648D01*
X156199500Y-107957648D01*
X156199500Y-108162351D01*
X156231522Y-108364534D01*
X156294781Y-108559223D01*
X156387715Y-108741613D01*
X156508028Y-108907213D01*
X156652786Y-109051971D01*
X156807749Y-109164556D01*
X156818390Y-109172287D01*
X156909840Y-109218883D01*
X156911080Y-109219515D01*
X156961876Y-109267490D01*
X156978671Y-109335311D01*
X156956134Y-109401446D01*
X156911080Y-109440485D01*
X156818386Y-109487715D01*
X156652786Y-109608028D01*
X156508028Y-109752786D01*
X156387715Y-109918386D01*
X156294781Y-110100776D01*
X156231522Y-110295465D01*
X156199500Y-110497648D01*
X156199500Y-110702351D01*
X156231522Y-110904534D01*
X156294781Y-111099223D01*
X156387715Y-111281613D01*
X156508028Y-111447213D01*
X156652786Y-111591971D01*
X156807749Y-111704556D01*
X156818390Y-111712287D01*
X156909840Y-111758883D01*
X156911080Y-111759515D01*
X156961876Y-111807490D01*
X156978671Y-111875311D01*
X156956134Y-111941446D01*
X156911080Y-111980485D01*
X156818386Y-112027715D01*
X156652786Y-112148028D01*
X156508028Y-112292786D01*
X156387715Y-112458386D01*
X156294781Y-112640776D01*
X156231522Y-112835465D01*
X156199500Y-113037648D01*
X156199500Y-113242351D01*
X156231522Y-113444534D01*
X156294781Y-113639223D01*
X156358691Y-113764653D01*
X156386072Y-113818390D01*
X156387715Y-113821613D01*
X156508028Y-113987213D01*
X156652786Y-114131971D01*
X156807749Y-114244556D01*
X156818390Y-114252287D01*
X156909840Y-114298883D01*
X156911080Y-114299515D01*
X156961876Y-114347490D01*
X156978671Y-114415311D01*
X156956134Y-114481446D01*
X156911080Y-114520485D01*
X156818386Y-114567715D01*
X156652786Y-114688028D01*
X156508028Y-114832786D01*
X156387715Y-114998386D01*
X156294781Y-115180776D01*
X156231522Y-115375465D01*
X156199500Y-115577648D01*
X156199500Y-115782351D01*
X156231522Y-115984534D01*
X156294781Y-116179223D01*
X156387715Y-116361613D01*
X156508028Y-116527213D01*
X156652786Y-116671971D01*
X156807749Y-116784556D01*
X156818390Y-116792287D01*
X156909840Y-116838883D01*
X156911080Y-116839515D01*
X156961876Y-116887490D01*
X156978671Y-116955311D01*
X156956134Y-117021446D01*
X156911080Y-117060485D01*
X156818386Y-117107715D01*
X156652786Y-117228028D01*
X156508028Y-117372786D01*
X156387715Y-117538386D01*
X156294781Y-117720776D01*
X156231522Y-117915465D01*
X156199500Y-118117648D01*
X156199500Y-118322351D01*
X156231522Y-118524534D01*
X156294781Y-118719223D01*
X156387715Y-118901613D01*
X156508028Y-119067213D01*
X156652786Y-119211971D01*
X156807749Y-119324556D01*
X156818390Y-119332287D01*
X156909840Y-119378883D01*
X156911080Y-119379515D01*
X156961876Y-119427490D01*
X156978671Y-119495311D01*
X156956134Y-119561446D01*
X156911080Y-119600485D01*
X156818386Y-119647715D01*
X156652786Y-119768028D01*
X156508028Y-119912786D01*
X156387715Y-120078386D01*
X156294781Y-120260776D01*
X156231522Y-120455465D01*
X156199500Y-120657648D01*
X156199500Y-120862351D01*
X156231522Y-121064534D01*
X156294781Y-121259223D01*
X156387715Y-121441613D01*
X156508028Y-121607213D01*
X156652786Y-121751971D01*
X156807749Y-121864556D01*
X156818390Y-121872287D01*
X156909840Y-121918883D01*
X156911080Y-121919515D01*
X156961876Y-121967490D01*
X156978671Y-122035311D01*
X156956134Y-122101446D01*
X156911080Y-122140485D01*
X156818386Y-122187715D01*
X156652786Y-122308028D01*
X156508028Y-122452786D01*
X156387715Y-122618386D01*
X156294781Y-122800776D01*
X156231522Y-122995465D01*
X156199500Y-123197648D01*
X156199500Y-123402351D01*
X156231522Y-123604534D01*
X156294781Y-123799223D01*
X156387715Y-123981613D01*
X156508028Y-124147213D01*
X156652786Y-124291971D01*
X156807749Y-124404556D01*
X156818390Y-124412287D01*
X156909840Y-124458883D01*
X156911080Y-124459515D01*
X156961876Y-124507490D01*
X156978671Y-124575311D01*
X156956134Y-124641446D01*
X156911080Y-124680485D01*
X156818386Y-124727715D01*
X156652786Y-124848028D01*
X156508028Y-124992786D01*
X156387715Y-125158386D01*
X156294781Y-125340776D01*
X156231522Y-125535465D01*
X156199500Y-125737648D01*
X156199500Y-125942351D01*
X156231522Y-126144534D01*
X156294781Y-126339223D01*
X156387715Y-126521613D01*
X156508028Y-126687213D01*
X156652786Y-126831971D01*
X156807749Y-126944556D01*
X156818390Y-126952287D01*
X156909840Y-126998883D01*
X156911080Y-126999515D01*
X156961876Y-127047490D01*
X156978671Y-127115311D01*
X156956134Y-127181446D01*
X156911080Y-127220485D01*
X156818386Y-127267715D01*
X156652786Y-127388028D01*
X156508028Y-127532786D01*
X156387715Y-127698386D01*
X156294781Y-127880776D01*
X156231522Y-128075465D01*
X156199500Y-128277648D01*
X156199500Y-128482351D01*
X156231522Y-128684534D01*
X156294781Y-128879223D01*
X156387715Y-129061613D01*
X156508028Y-129227213D01*
X156652786Y-129371971D01*
X156807749Y-129484556D01*
X156818390Y-129492287D01*
X156909840Y-129538883D01*
X156911080Y-129539515D01*
X156961876Y-129587490D01*
X156978671Y-129655311D01*
X156956134Y-129721446D01*
X156911080Y-129760485D01*
X156818386Y-129807715D01*
X156652786Y-129928028D01*
X156508028Y-130072786D01*
X156387715Y-130238386D01*
X156294781Y-130420776D01*
X156231522Y-130615465D01*
X156199500Y-130817648D01*
X156199500Y-131022351D01*
X156231522Y-131224534D01*
X156294781Y-131419223D01*
X156387715Y-131601613D01*
X156508028Y-131767213D01*
X156652786Y-131911971D01*
X156807749Y-132024556D01*
X156818390Y-132032287D01*
X156909840Y-132078883D01*
X156911080Y-132079515D01*
X156961876Y-132127490D01*
X156978671Y-132195311D01*
X156956134Y-132261446D01*
X156911080Y-132300485D01*
X156818386Y-132347715D01*
X156652786Y-132468028D01*
X156508028Y-132612786D01*
X156387715Y-132778386D01*
X156294781Y-132960776D01*
X156231522Y-133155465D01*
X156199500Y-133357648D01*
X156199500Y-133562351D01*
X156231522Y-133764534D01*
X156294781Y-133959223D01*
X156387715Y-134141613D01*
X156508028Y-134307213D01*
X156652786Y-134451971D01*
X156807749Y-134564556D01*
X156818390Y-134572287D01*
X156909840Y-134618883D01*
X156911080Y-134619515D01*
X156961876Y-134667490D01*
X156978671Y-134735311D01*
X156956134Y-134801446D01*
X156911080Y-134840485D01*
X156818386Y-134887715D01*
X156652786Y-135008028D01*
X156508028Y-135152786D01*
X156387715Y-135318386D01*
X156294781Y-135500776D01*
X156231522Y-135695465D01*
X156199500Y-135897648D01*
X156199500Y-136102351D01*
X156231522Y-136304534D01*
X156294781Y-136499223D01*
X156358691Y-136624653D01*
X156383781Y-136673894D01*
X156387715Y-136681613D01*
X156508028Y-136847213D01*
X156652786Y-136991971D01*
X156807749Y-137104556D01*
X156818390Y-137112287D01*
X156934607Y-137171503D01*
X157000776Y-137205218D01*
X157000778Y-137205218D01*
X157000781Y-137205220D01*
X157105137Y-137239127D01*
X157195465Y-137268477D01*
X157296557Y-137284488D01*
X157397648Y-137300500D01*
X157397649Y-137300500D01*
X157602351Y-137300500D01*
X157602352Y-137300500D01*
X157804534Y-137268477D01*
X157999219Y-137205220D01*
X158181610Y-137112287D01*
X158274590Y-137044732D01*
X158347213Y-136991971D01*
X158347215Y-136991968D01*
X158347219Y-136991966D01*
X158491966Y-136847219D01*
X158491968Y-136847215D01*
X158491971Y-136847213D01*
X158544732Y-136774590D01*
X158612287Y-136681610D01*
X158705220Y-136499219D01*
X158768477Y-136304534D01*
X158800500Y-136102352D01*
X158800500Y-135897648D01*
X158768477Y-135695466D01*
X158705220Y-135500781D01*
X158705218Y-135500778D01*
X158705218Y-135500776D01*
X158671503Y-135434607D01*
X158612287Y-135318390D01*
X158604556Y-135307749D01*
X158491971Y-135152786D01*
X158347213Y-135008028D01*
X158181614Y-134887715D01*
X158175006Y-134884348D01*
X158088917Y-134840483D01*
X158038123Y-134792511D01*
X158021328Y-134724690D01*
X158043865Y-134658555D01*
X158088917Y-134619516D01*
X158181610Y-134572287D01*
X158202770Y-134556913D01*
X158347213Y-134451971D01*
X158347215Y-134451968D01*
X158347219Y-134451966D01*
X158491966Y-134307219D01*
X158491968Y-134307215D01*
X158491971Y-134307213D01*
X158544732Y-134234590D01*
X158612287Y-134141610D01*
X158705220Y-133959219D01*
X158768477Y-133764534D01*
X158800500Y-133562352D01*
X158800500Y-133357648D01*
X158768477Y-133155466D01*
X158705220Y-132960781D01*
X158705218Y-132960778D01*
X158705218Y-132960776D01*
X158671503Y-132894607D01*
X158612287Y-132778390D01*
X158604556Y-132767749D01*
X158491971Y-132612786D01*
X158347213Y-132468028D01*
X158181614Y-132347715D01*
X158175006Y-132344348D01*
X158088917Y-132300483D01*
X158038123Y-132252511D01*
X158021328Y-132184690D01*
X158043865Y-132118555D01*
X158088917Y-132079516D01*
X158181610Y-132032287D01*
X158202770Y-132016913D01*
X158347213Y-131911971D01*
X158347215Y-131911968D01*
X158347219Y-131911966D01*
X158491966Y-131767219D01*
X158491968Y-131767215D01*
X158491971Y-131767213D01*
X158544732Y-131694590D01*
X158612287Y-131601610D01*
X158705220Y-131419219D01*
X158768477Y-131224534D01*
X158800500Y-131022352D01*
X158800500Y-130817648D01*
X158768477Y-130615466D01*
X158705220Y-130420781D01*
X158705218Y-130420778D01*
X158705218Y-130420776D01*
X158671503Y-130354607D01*
X158612287Y-130238390D01*
X158604556Y-130227749D01*
X158491971Y-130072786D01*
X158347213Y-129928028D01*
X158181614Y-129807715D01*
X158175006Y-129804348D01*
X158088917Y-129760483D01*
X158038123Y-129712511D01*
X158021328Y-129644690D01*
X158043865Y-129578555D01*
X158088917Y-129539516D01*
X158181610Y-129492287D01*
X158202770Y-129476913D01*
X158347213Y-129371971D01*
X158347215Y-129371968D01*
X158347219Y-129371966D01*
X158491966Y-129227219D01*
X158491968Y-129227215D01*
X158491971Y-129227213D01*
X158544732Y-129154590D01*
X158612287Y-129061610D01*
X158705220Y-128879219D01*
X158768477Y-128684534D01*
X158800500Y-128482352D01*
X158800500Y-128277648D01*
X158768477Y-128075466D01*
X158705220Y-127880781D01*
X158705218Y-127880778D01*
X158705218Y-127880776D01*
X158671503Y-127814607D01*
X158612287Y-127698390D01*
X158604556Y-127687749D01*
X158491971Y-127532786D01*
X158347213Y-127388028D01*
X158181614Y-127267715D01*
X158175006Y-127264348D01*
X158088917Y-127220483D01*
X158038123Y-127172511D01*
X158021328Y-127104690D01*
X158043865Y-127038555D01*
X158088917Y-126999516D01*
X158181610Y-126952287D01*
X158202770Y-126936913D01*
X158347213Y-126831971D01*
X158347215Y-126831968D01*
X158347219Y-126831966D01*
X158491966Y-126687219D01*
X158491968Y-126687215D01*
X158491971Y-126687213D01*
X158544732Y-126614590D01*
X158612287Y-126521610D01*
X158705220Y-126339219D01*
X158768477Y-126144534D01*
X158800500Y-125942352D01*
X158800500Y-125737648D01*
X158768477Y-125535466D01*
X158705220Y-125340781D01*
X158705218Y-125340778D01*
X158705218Y-125340776D01*
X158671503Y-125274607D01*
X158612287Y-125158390D01*
X158604556Y-125147749D01*
X158491971Y-124992786D01*
X158347213Y-124848028D01*
X158181614Y-124727715D01*
X158175006Y-124724348D01*
X158088917Y-124680483D01*
X158038123Y-124632511D01*
X158021328Y-124564690D01*
X158043865Y-124498555D01*
X158088917Y-124459516D01*
X158181610Y-124412287D01*
X158202770Y-124396913D01*
X158347213Y-124291971D01*
X158347215Y-124291968D01*
X158347219Y-124291966D01*
X158491966Y-124147219D01*
X158491968Y-124147215D01*
X158491971Y-124147213D01*
X158544732Y-124074590D01*
X158612287Y-123981610D01*
X158705220Y-123799219D01*
X158768477Y-123604534D01*
X158800500Y-123402352D01*
X158800500Y-123197648D01*
X158768477Y-122995466D01*
X158705220Y-122800781D01*
X158705218Y-122800778D01*
X158705218Y-122800776D01*
X158671503Y-122734607D01*
X158612287Y-122618390D01*
X158604556Y-122607749D01*
X158491971Y-122452786D01*
X158347213Y-122308028D01*
X158181614Y-122187715D01*
X158175006Y-122184348D01*
X158088917Y-122140483D01*
X158038123Y-122092511D01*
X158021328Y-122024690D01*
X158043865Y-121958555D01*
X158088917Y-121919516D01*
X158181610Y-121872287D01*
X158202770Y-121856913D01*
X158347213Y-121751971D01*
X158347215Y-121751968D01*
X158347219Y-121751966D01*
X158491966Y-121607219D01*
X158491968Y-121607215D01*
X158491971Y-121607213D01*
X158544732Y-121534590D01*
X158612287Y-121441610D01*
X158705220Y-121259219D01*
X158768477Y-121064534D01*
X158800500Y-120862352D01*
X158800500Y-120657648D01*
X158768477Y-120455466D01*
X158705220Y-120260781D01*
X158705218Y-120260778D01*
X158705218Y-120260776D01*
X158671503Y-120194607D01*
X158612287Y-120078390D01*
X158604556Y-120067749D01*
X158491971Y-119912786D01*
X158347213Y-119768028D01*
X158181614Y-119647715D01*
X158175006Y-119644348D01*
X158088917Y-119600483D01*
X158038123Y-119552511D01*
X158021328Y-119484690D01*
X158043865Y-119418555D01*
X158088917Y-119379516D01*
X158181610Y-119332287D01*
X158202770Y-119316913D01*
X158347213Y-119211971D01*
X158347215Y-119211968D01*
X158347219Y-119211966D01*
X158491966Y-119067219D01*
X158491968Y-119067215D01*
X158491971Y-119067213D01*
X158544732Y-118994590D01*
X158612287Y-118901610D01*
X158705220Y-118719219D01*
X158768477Y-118524534D01*
X158800500Y-118322352D01*
X158800500Y-118117648D01*
X158768477Y-117915466D01*
X158705220Y-117720781D01*
X158705218Y-117720778D01*
X158705218Y-117720776D01*
X158671503Y-117654607D01*
X158612287Y-117538390D01*
X158604556Y-117527749D01*
X158491971Y-117372786D01*
X158347213Y-117228028D01*
X158181614Y-117107715D01*
X158175006Y-117104348D01*
X158088917Y-117060483D01*
X158038123Y-117012511D01*
X158021328Y-116944690D01*
X158043865Y-116878555D01*
X158088917Y-116839516D01*
X158181610Y-116792287D01*
X158202770Y-116776913D01*
X158347213Y-116671971D01*
X158347215Y-116671968D01*
X158347219Y-116671966D01*
X158491966Y-116527219D01*
X158491968Y-116527215D01*
X158491971Y-116527213D01*
X158544732Y-116454590D01*
X158612287Y-116361610D01*
X158705220Y-116179219D01*
X158768477Y-115984534D01*
X158800500Y-115782352D01*
X158800500Y-115577648D01*
X158768477Y-115375466D01*
X158705220Y-115180781D01*
X158705218Y-115180778D01*
X158705218Y-115180776D01*
X158671503Y-115114607D01*
X158612287Y-114998390D01*
X158604556Y-114987749D01*
X158491971Y-114832786D01*
X158347213Y-114688028D01*
X158181614Y-114567715D01*
X158175006Y-114564348D01*
X158088917Y-114520483D01*
X158079765Y-114511839D01*
X158068099Y-114507105D01*
X158054846Y-114488305D01*
X158038123Y-114472511D01*
X158035096Y-114460288D01*
X158027842Y-114449998D01*
X158026856Y-114427016D01*
X158021328Y-114404690D01*
X158023728Y-114397648D01*
X162199500Y-114397648D01*
X162199500Y-114602351D01*
X162231522Y-114804534D01*
X162294781Y-114999223D01*
X162358691Y-115124653D01*
X162387288Y-115180776D01*
X162387715Y-115181613D01*
X162508028Y-115347213D01*
X162652786Y-115491971D01*
X162770713Y-115577648D01*
X162818390Y-115612287D01*
X162934607Y-115671503D01*
X163000776Y-115705218D01*
X163000778Y-115705218D01*
X163000781Y-115705220D01*
X163105137Y-115739127D01*
X163195465Y-115768477D01*
X163283068Y-115782352D01*
X163397648Y-115800500D01*
X163397649Y-115800500D01*
X163602351Y-115800500D01*
X163602352Y-115800500D01*
X163804534Y-115768477D01*
X163999219Y-115705220D01*
X164181610Y-115612287D01*
X164274590Y-115544732D01*
X164347213Y-115491971D01*
X164347215Y-115491968D01*
X164347219Y-115491966D01*
X164491966Y-115347219D01*
X164491968Y-115347215D01*
X164491971Y-115347213D01*
X164544732Y-115274590D01*
X164612287Y-115181610D01*
X164705220Y-114999219D01*
X164768477Y-114804534D01*
X164800500Y-114602352D01*
X164800500Y-114397648D01*
X164768477Y-114195466D01*
X164705220Y-114000781D01*
X164705218Y-114000778D01*
X164705218Y-114000776D01*
X164671503Y-113934607D01*
X164612287Y-113818390D01*
X164604556Y-113807749D01*
X164491971Y-113652786D01*
X164347213Y-113508028D01*
X164181613Y-113387715D01*
X164181612Y-113387714D01*
X164181610Y-113387713D01*
X164124653Y-113358691D01*
X163999223Y-113294781D01*
X163804534Y-113231522D01*
X163629995Y-113203878D01*
X163602352Y-113199500D01*
X163397648Y-113199500D01*
X163373329Y-113203351D01*
X163195465Y-113231522D01*
X163000776Y-113294781D01*
X162818386Y-113387715D01*
X162652786Y-113508028D01*
X162508028Y-113652786D01*
X162387715Y-113818386D01*
X162294781Y-114000776D01*
X162231522Y-114195465D01*
X162199500Y-114397648D01*
X158023728Y-114397648D01*
X158025389Y-114392772D01*
X158024850Y-114380193D01*
X158036445Y-114360327D01*
X158043865Y-114338555D01*
X158054567Y-114329280D01*
X158060072Y-114319851D01*
X158088916Y-114299516D01*
X158181610Y-114252287D01*
X158259818Y-114195466D01*
X158347213Y-114131971D01*
X158347215Y-114131968D01*
X158347219Y-114131966D01*
X158491966Y-113987219D01*
X158491968Y-113987215D01*
X158491971Y-113987213D01*
X158544732Y-113914590D01*
X158612287Y-113821610D01*
X158705220Y-113639219D01*
X158768477Y-113444534D01*
X158800500Y-113242352D01*
X158800500Y-113037648D01*
X158768477Y-112835466D01*
X158705220Y-112640781D01*
X158705218Y-112640778D01*
X158705218Y-112640776D01*
X158671503Y-112574607D01*
X158612287Y-112458390D01*
X158604556Y-112447749D01*
X158491971Y-112292786D01*
X158347213Y-112148028D01*
X158181614Y-112027715D01*
X158175006Y-112024348D01*
X158088917Y-111980483D01*
X158038123Y-111932511D01*
X158021328Y-111864690D01*
X158043865Y-111798555D01*
X158088917Y-111759516D01*
X158181610Y-111712287D01*
X158202770Y-111696913D01*
X158347213Y-111591971D01*
X158347215Y-111591968D01*
X158347219Y-111591966D01*
X158491966Y-111447219D01*
X158491968Y-111447215D01*
X158491971Y-111447213D01*
X158544732Y-111374590D01*
X158612287Y-111281610D01*
X158705220Y-111099219D01*
X158768477Y-110904534D01*
X158800500Y-110702352D01*
X158800500Y-110497648D01*
X158768477Y-110295466D01*
X158705220Y-110100781D01*
X158705218Y-110100778D01*
X158705218Y-110100776D01*
X158671503Y-110034607D01*
X158612287Y-109918390D01*
X158604556Y-109907749D01*
X158491971Y-109752786D01*
X158347219Y-109608034D01*
X158339397Y-109602351D01*
X158181610Y-109487713D01*
X158087683Y-109439854D01*
X158086466Y-109439200D01*
X158062563Y-109415593D01*
X158043562Y-109397648D01*
X162199500Y-109397648D01*
X162199500Y-109602351D01*
X162231522Y-109804534D01*
X162294781Y-109999223D01*
X162387715Y-110181613D01*
X162508028Y-110347213D01*
X162652786Y-110491971D01*
X162807749Y-110604556D01*
X162818390Y-110612287D01*
X162934607Y-110671503D01*
X163000776Y-110705218D01*
X163000778Y-110705218D01*
X163000781Y-110705220D01*
X163105137Y-110739127D01*
X163195465Y-110768477D01*
X163296557Y-110784488D01*
X163397648Y-110800500D01*
X163397649Y-110800500D01*
X163602351Y-110800500D01*
X163602352Y-110800500D01*
X163804534Y-110768477D01*
X163999219Y-110705220D01*
X164181610Y-110612287D01*
X164274590Y-110544732D01*
X164347213Y-110491971D01*
X164347215Y-110491968D01*
X164347219Y-110491966D01*
X164491966Y-110347219D01*
X164491968Y-110347215D01*
X164491971Y-110347213D01*
X164544732Y-110274590D01*
X164612287Y-110181610D01*
X164705220Y-109999219D01*
X164768477Y-109804534D01*
X164800500Y-109602352D01*
X164800500Y-109397648D01*
X164788511Y-109321954D01*
X164768477Y-109195465D01*
X164730523Y-109078656D01*
X164705220Y-109000781D01*
X164705218Y-109000778D01*
X164705218Y-109000776D01*
X164668814Y-108929331D01*
X164612287Y-108818390D01*
X164604556Y-108807749D01*
X164491971Y-108652786D01*
X164347213Y-108508028D01*
X164181613Y-108387715D01*
X164181612Y-108387714D01*
X164181610Y-108387713D01*
X164124653Y-108358691D01*
X163999223Y-108294781D01*
X163804534Y-108231522D01*
X163629995Y-108203878D01*
X163602352Y-108199500D01*
X163397648Y-108199500D01*
X163373329Y-108203351D01*
X163195465Y-108231522D01*
X163000776Y-108294781D01*
X162818386Y-108387715D01*
X162652786Y-108508028D01*
X162508028Y-108652786D01*
X162387715Y-108818386D01*
X162294781Y-109000776D01*
X162231522Y-109195465D01*
X162199500Y-109397648D01*
X158043562Y-109397648D01*
X158038123Y-109392511D01*
X158037777Y-109391114D01*
X158036754Y-109390104D01*
X158029404Y-109357304D01*
X158021328Y-109324690D01*
X158021791Y-109323329D01*
X158021477Y-109321925D01*
X158033027Y-109290358D01*
X158043865Y-109258555D01*
X158045035Y-109257540D01*
X158045486Y-109256309D01*
X158053264Y-109250409D01*
X158088917Y-109219516D01*
X158181610Y-109172287D01*
X158310482Y-109078657D01*
X158347213Y-109051971D01*
X158347215Y-109051968D01*
X158347219Y-109051966D01*
X158491966Y-108907219D01*
X158491968Y-108907215D01*
X158491971Y-108907213D01*
X158544732Y-108834590D01*
X158612287Y-108741610D01*
X158705220Y-108559219D01*
X158768477Y-108364534D01*
X158800500Y-108162352D01*
X158800500Y-107957648D01*
X158768477Y-107755466D01*
X158705220Y-107560781D01*
X158705218Y-107560778D01*
X158705218Y-107560776D01*
X158653865Y-107459991D01*
X158612287Y-107378390D01*
X158596892Y-107357200D01*
X158491971Y-107212786D01*
X158347213Y-107068028D01*
X158181613Y-106947715D01*
X158181612Y-106947714D01*
X158181610Y-106947713D01*
X158121898Y-106917288D01*
X157999223Y-106854781D01*
X157804534Y-106791522D01*
X157629995Y-106763878D01*
X157602352Y-106759500D01*
X157397648Y-106759500D01*
X157373329Y-106763351D01*
X157195465Y-106791522D01*
X157000776Y-106854781D01*
X156818386Y-106947715D01*
X156652786Y-107068028D01*
X156508028Y-107212786D01*
X156387715Y-107378386D01*
X156294781Y-107560776D01*
X156231522Y-107755465D01*
X156199500Y-107957648D01*
X148640499Y-107957648D01*
X148640499Y-107459992D01*
X148629999Y-107357203D01*
X148574814Y-107190666D01*
X148482712Y-107041344D01*
X148358656Y-106917288D01*
X148209334Y-106825186D01*
X148042797Y-106770001D01*
X148042795Y-106770000D01*
X147940010Y-106759500D01*
X146739998Y-106759500D01*
X146739981Y-106759501D01*
X146637203Y-106770000D01*
X146637200Y-106770001D01*
X146470668Y-106825185D01*
X146470663Y-106825187D01*
X146321342Y-106917289D01*
X146197289Y-107041342D01*
X146105187Y-107190663D01*
X146105186Y-107190666D01*
X146050001Y-107357203D01*
X146050001Y-107357204D01*
X146050000Y-107357204D01*
X146039500Y-107459983D01*
X137700500Y-107459983D01*
X137700500Y-82009983D01*
X147359500Y-82009983D01*
X147359500Y-83210001D01*
X147359501Y-83210018D01*
X147370000Y-83312796D01*
X147370001Y-83312799D01*
X147417856Y-83457213D01*
X147425186Y-83479334D01*
X147517288Y-83628656D01*
X147641344Y-83752712D01*
X147790666Y-83844814D01*
X147872570Y-83871954D01*
X147930015Y-83911727D01*
X147956838Y-83976243D01*
X147944523Y-84045018D01*
X147906451Y-84089978D01*
X147812787Y-84158028D01*
X147812782Y-84158032D01*
X147668028Y-84302786D01*
X147547715Y-84468386D01*
X147454781Y-84650776D01*
X147391522Y-84845465D01*
X147359500Y-85047648D01*
X147359500Y-85252351D01*
X147391522Y-85454534D01*
X147454781Y-85649223D01*
X147547715Y-85831613D01*
X147668028Y-85997213D01*
X147812786Y-86141971D01*
X147967749Y-86254556D01*
X147978390Y-86262287D01*
X148069840Y-86308883D01*
X148071080Y-86309515D01*
X148121876Y-86357490D01*
X148138671Y-86425311D01*
X148116134Y-86491446D01*
X148071080Y-86530485D01*
X147978386Y-86577715D01*
X147812786Y-86698028D01*
X147668028Y-86842786D01*
X147547715Y-87008386D01*
X147454781Y-87190776D01*
X147391522Y-87385465D01*
X147359500Y-87587648D01*
X147359500Y-87792351D01*
X147391522Y-87994534D01*
X147454781Y-88189223D01*
X147547715Y-88371613D01*
X147668028Y-88537213D01*
X147812786Y-88681971D01*
X147967749Y-88794556D01*
X147978390Y-88802287D01*
X148069840Y-88848883D01*
X148071080Y-88849515D01*
X148121876Y-88897490D01*
X148138671Y-88965311D01*
X148116134Y-89031446D01*
X148071080Y-89070485D01*
X147978386Y-89117715D01*
X147812786Y-89238028D01*
X147668028Y-89382786D01*
X147547715Y-89548386D01*
X147454781Y-89730776D01*
X147391522Y-89925465D01*
X147359500Y-90127648D01*
X147359500Y-90332351D01*
X147391522Y-90534534D01*
X147454781Y-90729223D01*
X147547715Y-90911613D01*
X147668028Y-91077213D01*
X147812786Y-91221971D01*
X147967749Y-91334556D01*
X147978390Y-91342287D01*
X148069840Y-91388883D01*
X148071080Y-91389515D01*
X148121876Y-91437490D01*
X148138671Y-91505311D01*
X148116134Y-91571446D01*
X148071080Y-91610485D01*
X147978386Y-91657715D01*
X147812786Y-91778028D01*
X147668028Y-91922786D01*
X147547715Y-92088386D01*
X147454781Y-92270776D01*
X147391522Y-92465465D01*
X147359500Y-92667648D01*
X147359500Y-92872351D01*
X147391522Y-93074534D01*
X147454781Y-93269223D01*
X147547715Y-93451613D01*
X147668028Y-93617213D01*
X147812786Y-93761971D01*
X147967749Y-93874556D01*
X147978390Y-93882287D01*
X148069840Y-93928883D01*
X148071080Y-93929515D01*
X148121876Y-93977490D01*
X148138671Y-94045311D01*
X148116134Y-94111446D01*
X148071080Y-94150485D01*
X147978386Y-94197715D01*
X147812786Y-94318028D01*
X147668028Y-94462786D01*
X147547715Y-94628386D01*
X147454781Y-94810776D01*
X147391522Y-95005465D01*
X147359500Y-95207648D01*
X147359500Y-95412351D01*
X147391522Y-95614534D01*
X147454781Y-95809223D01*
X147547715Y-95991613D01*
X147668028Y-96157213D01*
X147812786Y-96301971D01*
X147967749Y-96414556D01*
X147978390Y-96422287D01*
X148069840Y-96468883D01*
X148071080Y-96469515D01*
X148121876Y-96517490D01*
X148138671Y-96585311D01*
X148116134Y-96651446D01*
X148071080Y-96690485D01*
X147978386Y-96737715D01*
X147812786Y-96858028D01*
X147668028Y-97002786D01*
X147547715Y-97168386D01*
X147454781Y-97350776D01*
X147391522Y-97545465D01*
X147359500Y-97747648D01*
X147359500Y-97952351D01*
X147391522Y-98154534D01*
X147454781Y-98349223D01*
X147547715Y-98531613D01*
X147668028Y-98697213D01*
X147812786Y-98841971D01*
X147967749Y-98954556D01*
X147978390Y-98962287D01*
X148069840Y-99008883D01*
X148071080Y-99009515D01*
X148121876Y-99057490D01*
X148138671Y-99125311D01*
X148116134Y-99191446D01*
X148071080Y-99230485D01*
X147978386Y-99277715D01*
X147812786Y-99398028D01*
X147668028Y-99542786D01*
X147547715Y-99708386D01*
X147454781Y-99890776D01*
X147391522Y-100085465D01*
X147359500Y-100287648D01*
X147359500Y-100492351D01*
X147391522Y-100694534D01*
X147454781Y-100889223D01*
X147547715Y-101071613D01*
X147668028Y-101237213D01*
X147812786Y-101381971D01*
X147967749Y-101494556D01*
X147978390Y-101502287D01*
X148094607Y-101561503D01*
X148160776Y-101595218D01*
X148160778Y-101595218D01*
X148160781Y-101595220D01*
X148265137Y-101629127D01*
X148355465Y-101658477D01*
X148456557Y-101674488D01*
X148557648Y-101690500D01*
X148557649Y-101690500D01*
X148762351Y-101690500D01*
X148762352Y-101690500D01*
X148964534Y-101658477D01*
X149159219Y-101595220D01*
X149341610Y-101502287D01*
X149434590Y-101434732D01*
X149507213Y-101381971D01*
X149507215Y-101381968D01*
X149507219Y-101381966D01*
X149651966Y-101237219D01*
X149651968Y-101237215D01*
X149651971Y-101237213D01*
X149704732Y-101164590D01*
X149772287Y-101071610D01*
X149865220Y-100889219D01*
X149928477Y-100694534D01*
X149960500Y-100492352D01*
X149960500Y-100287648D01*
X149928477Y-100085466D01*
X149865220Y-99890781D01*
X149865218Y-99890778D01*
X149865218Y-99890776D01*
X149831503Y-99824607D01*
X149772287Y-99708390D01*
X149764556Y-99697749D01*
X149651971Y-99542786D01*
X149507213Y-99398028D01*
X149341614Y-99277715D01*
X149335006Y-99274348D01*
X149248917Y-99230483D01*
X149198123Y-99182511D01*
X149181328Y-99114690D01*
X149203865Y-99048555D01*
X149248917Y-99009516D01*
X149341610Y-98962287D01*
X149362770Y-98946913D01*
X149507213Y-98841971D01*
X149507215Y-98841968D01*
X149507219Y-98841966D01*
X149651966Y-98697219D01*
X149651968Y-98697215D01*
X149651971Y-98697213D01*
X149704732Y-98624590D01*
X149772287Y-98531610D01*
X149865220Y-98349219D01*
X149928477Y-98154534D01*
X149960500Y-97952352D01*
X149960500Y-97747648D01*
X149928477Y-97545466D01*
X149865220Y-97350781D01*
X149865218Y-97350778D01*
X149865218Y-97350776D01*
X149831503Y-97284607D01*
X149772287Y-97168390D01*
X149764556Y-97157749D01*
X149651971Y-97002786D01*
X149507213Y-96858028D01*
X149341614Y-96737715D01*
X149335006Y-96734348D01*
X149248917Y-96690483D01*
X149198123Y-96642511D01*
X149181328Y-96574690D01*
X149203865Y-96508555D01*
X149248917Y-96469516D01*
X149341610Y-96422287D01*
X149362770Y-96406913D01*
X149507213Y-96301971D01*
X149507215Y-96301968D01*
X149507219Y-96301966D01*
X149651966Y-96157219D01*
X149651968Y-96157215D01*
X149651971Y-96157213D01*
X149704732Y-96084590D01*
X149772287Y-95991610D01*
X149865220Y-95809219D01*
X149928477Y-95614534D01*
X149960500Y-95412352D01*
X149960500Y-95207648D01*
X149928477Y-95005466D01*
X149865220Y-94810781D01*
X149865218Y-94810778D01*
X149865218Y-94810776D01*
X149831503Y-94744607D01*
X149772287Y-94628390D01*
X149764556Y-94617749D01*
X149651971Y-94462786D01*
X149507213Y-94318028D01*
X149341614Y-94197715D01*
X149335006Y-94194348D01*
X149248917Y-94150483D01*
X149198123Y-94102511D01*
X149181328Y-94034690D01*
X149203865Y-93968555D01*
X149248917Y-93929516D01*
X149341610Y-93882287D01*
X149362770Y-93866913D01*
X149507213Y-93761971D01*
X149507215Y-93761968D01*
X149507219Y-93761966D01*
X149651966Y-93617219D01*
X149651968Y-93617215D01*
X149651971Y-93617213D01*
X149704732Y-93544590D01*
X149772287Y-93451610D01*
X149865220Y-93269219D01*
X149928477Y-93074534D01*
X149960500Y-92872352D01*
X149960500Y-92667648D01*
X149928477Y-92465466D01*
X149865220Y-92270781D01*
X149865218Y-92270778D01*
X149865218Y-92270776D01*
X149831503Y-92204607D01*
X149772287Y-92088390D01*
X149764556Y-92077749D01*
X149651971Y-91922786D01*
X149507213Y-91778028D01*
X149341614Y-91657715D01*
X149335006Y-91654348D01*
X149248917Y-91610483D01*
X149198123Y-91562511D01*
X149181328Y-91494690D01*
X149203865Y-91428555D01*
X149248917Y-91389516D01*
X149341610Y-91342287D01*
X149362770Y-91326913D01*
X149507213Y-91221971D01*
X149507215Y-91221968D01*
X149507219Y-91221966D01*
X149651966Y-91077219D01*
X149651968Y-91077215D01*
X149651971Y-91077213D01*
X149704732Y-91004590D01*
X149772287Y-90911610D01*
X149865220Y-90729219D01*
X149928477Y-90534534D01*
X149960500Y-90332352D01*
X149960500Y-90127648D01*
X149928477Y-89925466D01*
X149865220Y-89730781D01*
X149865218Y-89730778D01*
X149865218Y-89730776D01*
X149831503Y-89664607D01*
X149772287Y-89548390D01*
X149764556Y-89537749D01*
X149651971Y-89382786D01*
X149507213Y-89238028D01*
X149341614Y-89117715D01*
X149335006Y-89114348D01*
X149248917Y-89070483D01*
X149198123Y-89022511D01*
X149181328Y-88954690D01*
X149203865Y-88888555D01*
X149248917Y-88849516D01*
X149341610Y-88802287D01*
X149362770Y-88786913D01*
X149507213Y-88681971D01*
X149507215Y-88681968D01*
X149507219Y-88681966D01*
X149651966Y-88537219D01*
X149651968Y-88537215D01*
X149651971Y-88537213D01*
X149704732Y-88464590D01*
X149772287Y-88371610D01*
X149865220Y-88189219D01*
X149928477Y-87994534D01*
X149960500Y-87792352D01*
X149960500Y-87587648D01*
X149928477Y-87385466D01*
X149865220Y-87190781D01*
X149865218Y-87190778D01*
X149865218Y-87190776D01*
X149831503Y-87124607D01*
X149772287Y-87008390D01*
X149764556Y-86997749D01*
X149651971Y-86842786D01*
X149507213Y-86698028D01*
X149341614Y-86577715D01*
X149335006Y-86574348D01*
X149248917Y-86530483D01*
X149198123Y-86482511D01*
X149181328Y-86414690D01*
X149203865Y-86348555D01*
X149248917Y-86309516D01*
X149341610Y-86262287D01*
X149362770Y-86246913D01*
X149507213Y-86141971D01*
X149507215Y-86141968D01*
X149507219Y-86141966D01*
X149651966Y-85997219D01*
X149651968Y-85997215D01*
X149651971Y-85997213D01*
X149704732Y-85924590D01*
X149772287Y-85831610D01*
X149865220Y-85649219D01*
X149928477Y-85454534D01*
X149960500Y-85252352D01*
X149960500Y-85047648D01*
X149928477Y-84845466D01*
X149865220Y-84650781D01*
X149865218Y-84650778D01*
X149865218Y-84650776D01*
X149831503Y-84584607D01*
X149772287Y-84468390D01*
X149764556Y-84457749D01*
X149651971Y-84302786D01*
X149507219Y-84158034D01*
X149507211Y-84158028D01*
X149413547Y-84089978D01*
X149370882Y-84034649D01*
X149364903Y-83965036D01*
X149397508Y-83903240D01*
X149447426Y-83871955D01*
X149529334Y-83844814D01*
X149678656Y-83752712D01*
X149802712Y-83628656D01*
X149894814Y-83479334D01*
X149949999Y-83312797D01*
X149960500Y-83210009D01*
X149960499Y-82507648D01*
X154979500Y-82507648D01*
X154979500Y-82712351D01*
X155011522Y-82914534D01*
X155074781Y-83109223D01*
X155167715Y-83291613D01*
X155288028Y-83457213D01*
X155432786Y-83601971D01*
X155587749Y-83714556D01*
X155598390Y-83722287D01*
X155689840Y-83768883D01*
X155691080Y-83769515D01*
X155741876Y-83817490D01*
X155758671Y-83885311D01*
X155736134Y-83951446D01*
X155691080Y-83990485D01*
X155598386Y-84037715D01*
X155432786Y-84158028D01*
X155288028Y-84302786D01*
X155167715Y-84468386D01*
X155074781Y-84650776D01*
X155011522Y-84845465D01*
X154979500Y-85047648D01*
X154979500Y-85252351D01*
X155011522Y-85454534D01*
X155074781Y-85649223D01*
X155167715Y-85831613D01*
X155288028Y-85997213D01*
X155432786Y-86141971D01*
X155587749Y-86254556D01*
X155598390Y-86262287D01*
X155689840Y-86308883D01*
X155691080Y-86309515D01*
X155741876Y-86357490D01*
X155758671Y-86425311D01*
X155736134Y-86491446D01*
X155691080Y-86530485D01*
X155598386Y-86577715D01*
X155432786Y-86698028D01*
X155288028Y-86842786D01*
X155167715Y-87008386D01*
X155074781Y-87190776D01*
X155011522Y-87385465D01*
X154979500Y-87587648D01*
X154979500Y-87792351D01*
X155011522Y-87994534D01*
X155074781Y-88189223D01*
X155167715Y-88371613D01*
X155288028Y-88537213D01*
X155432786Y-88681971D01*
X155587749Y-88794556D01*
X155598390Y-88802287D01*
X155689840Y-88848883D01*
X155691080Y-88849515D01*
X155741876Y-88897490D01*
X155758671Y-88965311D01*
X155736134Y-89031446D01*
X155691080Y-89070485D01*
X155598386Y-89117715D01*
X155432786Y-89238028D01*
X155288028Y-89382786D01*
X155167715Y-89548386D01*
X155074781Y-89730776D01*
X155011522Y-89925465D01*
X154979500Y-90127648D01*
X154979500Y-90332351D01*
X155011522Y-90534534D01*
X155074781Y-90729223D01*
X155167715Y-90911613D01*
X155288028Y-91077213D01*
X155432786Y-91221971D01*
X155587749Y-91334556D01*
X155598390Y-91342287D01*
X155689840Y-91388883D01*
X155691080Y-91389515D01*
X155741876Y-91437490D01*
X155758671Y-91505311D01*
X155736134Y-91571446D01*
X155691080Y-91610485D01*
X155598386Y-91657715D01*
X155432786Y-91778028D01*
X155288028Y-91922786D01*
X155167715Y-92088386D01*
X155074781Y-92270776D01*
X155011522Y-92465465D01*
X154979500Y-92667648D01*
X154979500Y-92872351D01*
X155011522Y-93074534D01*
X155074781Y-93269223D01*
X155167715Y-93451613D01*
X155288028Y-93617213D01*
X155432786Y-93761971D01*
X155587749Y-93874556D01*
X155598390Y-93882287D01*
X155689840Y-93928883D01*
X155691080Y-93929515D01*
X155741876Y-93977490D01*
X155758671Y-94045311D01*
X155736134Y-94111446D01*
X155691080Y-94150485D01*
X155598386Y-94197715D01*
X155432786Y-94318028D01*
X155288028Y-94462786D01*
X155167715Y-94628386D01*
X155074781Y-94810776D01*
X155011522Y-95005465D01*
X154979500Y-95207648D01*
X154979500Y-95412351D01*
X155011522Y-95614534D01*
X155074781Y-95809223D01*
X155167715Y-95991613D01*
X155288028Y-96157213D01*
X155432786Y-96301971D01*
X155587749Y-96414556D01*
X155598390Y-96422287D01*
X155689840Y-96468883D01*
X155691080Y-96469515D01*
X155741876Y-96517490D01*
X155758671Y-96585311D01*
X155736134Y-96651446D01*
X155691080Y-96690485D01*
X155598386Y-96737715D01*
X155432786Y-96858028D01*
X155288028Y-97002786D01*
X155167715Y-97168386D01*
X155074781Y-97350776D01*
X155011522Y-97545465D01*
X154979500Y-97747648D01*
X154979500Y-97952351D01*
X155011522Y-98154534D01*
X155074781Y-98349223D01*
X155167715Y-98531613D01*
X155288028Y-98697213D01*
X155432786Y-98841971D01*
X155587749Y-98954556D01*
X155598390Y-98962287D01*
X155689840Y-99008883D01*
X155691080Y-99009515D01*
X155741876Y-99057490D01*
X155758671Y-99125311D01*
X155736134Y-99191446D01*
X155691080Y-99230485D01*
X155598386Y-99277715D01*
X155432786Y-99398028D01*
X155288028Y-99542786D01*
X155167715Y-99708386D01*
X155074781Y-99890776D01*
X155011522Y-100085465D01*
X154979500Y-100287648D01*
X154979500Y-100492351D01*
X155011522Y-100694534D01*
X155074781Y-100889223D01*
X155167715Y-101071613D01*
X155288028Y-101237213D01*
X155432786Y-101381971D01*
X155587749Y-101494556D01*
X155598390Y-101502287D01*
X155714607Y-101561503D01*
X155780776Y-101595218D01*
X155780778Y-101595218D01*
X155780781Y-101595220D01*
X155885137Y-101629127D01*
X155975465Y-101658477D01*
X156076557Y-101674488D01*
X156177648Y-101690500D01*
X156177649Y-101690500D01*
X156382351Y-101690500D01*
X156382352Y-101690500D01*
X156584534Y-101658477D01*
X156779219Y-101595220D01*
X156961610Y-101502287D01*
X157054590Y-101434732D01*
X157127213Y-101381971D01*
X157127215Y-101381968D01*
X157127219Y-101381966D01*
X157271966Y-101237219D01*
X157271968Y-101237215D01*
X157271971Y-101237213D01*
X157324732Y-101164590D01*
X157392287Y-101071610D01*
X157485220Y-100889219D01*
X157548477Y-100694534D01*
X157580500Y-100492352D01*
X157580500Y-100287648D01*
X157548477Y-100085466D01*
X157485220Y-99890781D01*
X157485218Y-99890778D01*
X157485218Y-99890776D01*
X157451503Y-99824607D01*
X157392287Y-99708390D01*
X157384556Y-99697749D01*
X157271971Y-99542786D01*
X157127213Y-99398028D01*
X156961614Y-99277715D01*
X156955006Y-99274348D01*
X156868917Y-99230483D01*
X156818123Y-99182511D01*
X156801328Y-99114690D01*
X156823865Y-99048555D01*
X156868917Y-99009516D01*
X156961610Y-98962287D01*
X156982770Y-98946913D01*
X157127213Y-98841971D01*
X157127215Y-98841968D01*
X157127219Y-98841966D01*
X157271966Y-98697219D01*
X157271968Y-98697215D01*
X157271971Y-98697213D01*
X157324732Y-98624590D01*
X157392287Y-98531610D01*
X157485220Y-98349219D01*
X157548477Y-98154534D01*
X157580500Y-97952352D01*
X157580500Y-97747648D01*
X157548477Y-97545466D01*
X157485220Y-97350781D01*
X157485218Y-97350778D01*
X157485218Y-97350776D01*
X157451503Y-97284607D01*
X157392287Y-97168390D01*
X157384556Y-97157749D01*
X157271971Y-97002786D01*
X157127213Y-96858028D01*
X156961614Y-96737715D01*
X156955006Y-96734348D01*
X156868917Y-96690483D01*
X156818123Y-96642511D01*
X156801328Y-96574690D01*
X156823865Y-96508555D01*
X156868917Y-96469516D01*
X156961610Y-96422287D01*
X156982770Y-96406913D01*
X157127213Y-96301971D01*
X157127215Y-96301968D01*
X157127219Y-96301966D01*
X157271966Y-96157219D01*
X157271968Y-96157215D01*
X157271971Y-96157213D01*
X157324732Y-96084590D01*
X157392287Y-95991610D01*
X157485220Y-95809219D01*
X157548477Y-95614534D01*
X157580500Y-95412352D01*
X157580500Y-95207648D01*
X157548477Y-95005466D01*
X157485220Y-94810781D01*
X157485218Y-94810778D01*
X157485218Y-94810776D01*
X157451503Y-94744607D01*
X157392287Y-94628390D01*
X157384556Y-94617749D01*
X157271971Y-94462786D01*
X157127213Y-94318028D01*
X156961614Y-94197715D01*
X156955006Y-94194348D01*
X156868917Y-94150483D01*
X156818123Y-94102511D01*
X156801328Y-94034690D01*
X156823865Y-93968555D01*
X156868917Y-93929516D01*
X156961610Y-93882287D01*
X156982770Y-93866913D01*
X157127213Y-93761971D01*
X157127215Y-93761968D01*
X157127219Y-93761966D01*
X157271966Y-93617219D01*
X157271968Y-93617215D01*
X157271971Y-93617213D01*
X157324732Y-93544590D01*
X157392287Y-93451610D01*
X157485220Y-93269219D01*
X157548477Y-93074534D01*
X157580500Y-92872352D01*
X157580500Y-92667648D01*
X157548477Y-92465466D01*
X157485220Y-92270781D01*
X157485218Y-92270778D01*
X157485218Y-92270776D01*
X157451503Y-92204607D01*
X157392287Y-92088390D01*
X157384556Y-92077749D01*
X157271971Y-91922786D01*
X157127213Y-91778028D01*
X156961614Y-91657715D01*
X156955006Y-91654348D01*
X156868917Y-91610483D01*
X156818123Y-91562511D01*
X156801328Y-91494690D01*
X156823865Y-91428555D01*
X156868917Y-91389516D01*
X156961610Y-91342287D01*
X156982770Y-91326913D01*
X157127213Y-91221971D01*
X157127215Y-91221968D01*
X157127219Y-91221966D01*
X157271966Y-91077219D01*
X157271968Y-91077215D01*
X157271971Y-91077213D01*
X157324732Y-91004590D01*
X157392287Y-90911610D01*
X157485220Y-90729219D01*
X157548477Y-90534534D01*
X157580500Y-90332352D01*
X157580500Y-90127648D01*
X157548477Y-89925466D01*
X157485220Y-89730781D01*
X157485218Y-89730778D01*
X157485218Y-89730776D01*
X157451503Y-89664607D01*
X157392287Y-89548390D01*
X157384556Y-89537749D01*
X157271971Y-89382786D01*
X157127213Y-89238028D01*
X156961614Y-89117715D01*
X156955006Y-89114348D01*
X156868917Y-89070483D01*
X156818123Y-89022511D01*
X156801328Y-88954690D01*
X156823865Y-88888555D01*
X156868917Y-88849516D01*
X156961610Y-88802287D01*
X156982770Y-88786913D01*
X157127213Y-88681971D01*
X157127215Y-88681968D01*
X157127219Y-88681966D01*
X157271966Y-88537219D01*
X157271968Y-88537215D01*
X157271971Y-88537213D01*
X157324732Y-88464590D01*
X157392287Y-88371610D01*
X157485220Y-88189219D01*
X157548477Y-87994534D01*
X157580500Y-87792352D01*
X157580500Y-87587648D01*
X157548477Y-87385466D01*
X157485220Y-87190781D01*
X157485218Y-87190778D01*
X157485218Y-87190776D01*
X157451503Y-87124607D01*
X157392287Y-87008390D01*
X157384556Y-86997749D01*
X157271971Y-86842786D01*
X157127213Y-86698028D01*
X156961614Y-86577715D01*
X156955006Y-86574348D01*
X156868917Y-86530483D01*
X156818123Y-86482511D01*
X156801328Y-86414690D01*
X156823865Y-86348555D01*
X156868917Y-86309516D01*
X156961610Y-86262287D01*
X156982770Y-86246913D01*
X157127213Y-86141971D01*
X157127215Y-86141968D01*
X157127219Y-86141966D01*
X157271966Y-85997219D01*
X157271968Y-85997215D01*
X157271971Y-85997213D01*
X157324732Y-85924590D01*
X157392287Y-85831610D01*
X157485220Y-85649219D01*
X157548477Y-85454534D01*
X157580500Y-85252352D01*
X157580500Y-85047648D01*
X157548477Y-84845466D01*
X157485220Y-84650781D01*
X157485218Y-84650778D01*
X157485218Y-84650776D01*
X157451503Y-84584607D01*
X157392287Y-84468390D01*
X157384556Y-84457749D01*
X157271971Y-84302786D01*
X157127213Y-84158028D01*
X156961614Y-84037715D01*
X156955006Y-84034348D01*
X156868917Y-83990483D01*
X156818123Y-83942511D01*
X156801328Y-83874690D01*
X156823865Y-83808555D01*
X156868917Y-83769516D01*
X156961610Y-83722287D01*
X157090482Y-83628657D01*
X157127213Y-83601971D01*
X157127215Y-83601968D01*
X157127219Y-83601966D01*
X157271966Y-83457219D01*
X157271968Y-83457215D01*
X157271971Y-83457213D01*
X157376892Y-83312799D01*
X157392287Y-83291610D01*
X157485220Y-83109219D01*
X157548477Y-82914534D01*
X157580500Y-82712352D01*
X157580500Y-82507648D01*
X157548477Y-82305466D01*
X157485220Y-82110781D01*
X157485218Y-82110778D01*
X157485218Y-82110776D01*
X157433865Y-82009991D01*
X157392287Y-81928390D01*
X157376892Y-81907200D01*
X157271971Y-81762786D01*
X157127213Y-81618028D01*
X156961613Y-81497715D01*
X156961612Y-81497714D01*
X156961610Y-81497713D01*
X156901898Y-81467288D01*
X156779223Y-81404781D01*
X156584534Y-81341522D01*
X156409995Y-81313878D01*
X156382352Y-81309500D01*
X156177648Y-81309500D01*
X156153329Y-81313351D01*
X155975465Y-81341522D01*
X155780776Y-81404781D01*
X155598386Y-81497715D01*
X155432786Y-81618028D01*
X155288028Y-81762786D01*
X155167715Y-81928386D01*
X155074781Y-82110776D01*
X155011522Y-82305465D01*
X154979500Y-82507648D01*
X149960499Y-82507648D01*
X149960499Y-82009992D01*
X149949999Y-81907203D01*
X149894814Y-81740666D01*
X149802712Y-81591344D01*
X149678656Y-81467288D01*
X149529334Y-81375186D01*
X149362797Y-81320001D01*
X149362795Y-81320000D01*
X149260010Y-81309500D01*
X148059998Y-81309500D01*
X148059981Y-81309501D01*
X147957203Y-81320000D01*
X147957200Y-81320001D01*
X147790668Y-81375185D01*
X147790663Y-81375187D01*
X147641342Y-81467289D01*
X147517289Y-81591342D01*
X147425187Y-81740663D01*
X147425186Y-81740666D01*
X147370001Y-81907203D01*
X147370001Y-81907204D01*
X147370000Y-81907204D01*
X147359500Y-82009983D01*
X137700500Y-82009983D01*
X137700500Y-64899983D01*
X147359500Y-64899983D01*
X147359500Y-66100001D01*
X147359501Y-66100018D01*
X147370000Y-66202796D01*
X147370001Y-66202799D01*
X147417856Y-66347213D01*
X147425186Y-66369334D01*
X147517288Y-66518656D01*
X147641344Y-66642712D01*
X147790666Y-66734814D01*
X147872570Y-66761954D01*
X147930015Y-66801727D01*
X147956838Y-66866243D01*
X147944523Y-66935018D01*
X147906451Y-66979978D01*
X147812787Y-67048028D01*
X147812782Y-67048032D01*
X147668028Y-67192786D01*
X147547715Y-67358386D01*
X147454781Y-67540776D01*
X147391522Y-67735465D01*
X147359500Y-67937648D01*
X147359500Y-68142351D01*
X147391522Y-68344534D01*
X147454781Y-68539223D01*
X147547715Y-68721613D01*
X147668028Y-68887213D01*
X147812786Y-69031971D01*
X147978385Y-69152284D01*
X147978387Y-69152285D01*
X147978390Y-69152287D01*
X148071630Y-69199795D01*
X148122426Y-69247770D01*
X148139221Y-69315591D01*
X148116684Y-69381725D01*
X148071630Y-69420765D01*
X147978644Y-69468143D01*
X147934077Y-69500523D01*
X147934077Y-69500524D01*
X148613554Y-70180000D01*
X148607339Y-70180000D01*
X148505606Y-70207259D01*
X148414394Y-70259920D01*
X148339920Y-70334394D01*
X148287259Y-70425606D01*
X148260000Y-70527339D01*
X148260000Y-70533553D01*
X147580524Y-69854077D01*
X147580523Y-69854077D01*
X147548143Y-69898644D01*
X147455244Y-70080968D01*
X147392009Y-70275582D01*
X147360000Y-70477682D01*
X147360000Y-70682317D01*
X147392009Y-70884417D01*
X147455244Y-71079031D01*
X147548141Y-71261350D01*
X147548147Y-71261359D01*
X147580523Y-71305921D01*
X147580524Y-71305922D01*
X148260000Y-70626446D01*
X148260000Y-70632661D01*
X148287259Y-70734394D01*
X148339920Y-70825606D01*
X148414394Y-70900080D01*
X148505606Y-70952741D01*
X148607339Y-70980000D01*
X148613553Y-70980000D01*
X147934076Y-71659474D01*
X147978652Y-71691861D01*
X148071628Y-71739234D01*
X148122425Y-71787208D01*
X148139220Y-71855029D01*
X148116683Y-71921164D01*
X148071630Y-71960203D01*
X147978388Y-72007713D01*
X147812786Y-72128028D01*
X147668028Y-72272786D01*
X147547715Y-72438386D01*
X147454781Y-72620776D01*
X147391522Y-72815465D01*
X147359500Y-73017648D01*
X147359500Y-73222351D01*
X147391522Y-73424534D01*
X147454781Y-73619223D01*
X147547715Y-73801613D01*
X147668028Y-73967213D01*
X147812786Y-74111971D01*
X147967749Y-74224556D01*
X147978390Y-74232287D01*
X148069840Y-74278883D01*
X148071080Y-74279515D01*
X148121876Y-74327490D01*
X148138671Y-74395311D01*
X148116134Y-74461446D01*
X148071080Y-74500485D01*
X147978386Y-74547715D01*
X147812786Y-74668028D01*
X147668028Y-74812786D01*
X147547715Y-74978386D01*
X147454781Y-75160776D01*
X147391522Y-75355465D01*
X147359500Y-75557648D01*
X147359500Y-75762351D01*
X147391522Y-75964534D01*
X147454781Y-76159223D01*
X147547715Y-76341613D01*
X147668028Y-76507213D01*
X147812786Y-76651971D01*
X147967749Y-76764556D01*
X147978390Y-76772287D01*
X148094607Y-76831503D01*
X148160776Y-76865218D01*
X148160778Y-76865218D01*
X148160781Y-76865220D01*
X148265137Y-76899127D01*
X148355465Y-76928477D01*
X148456557Y-76944488D01*
X148557648Y-76960500D01*
X148557649Y-76960500D01*
X148762351Y-76960500D01*
X148762352Y-76960500D01*
X148964534Y-76928477D01*
X149159219Y-76865220D01*
X149341610Y-76772287D01*
X149434590Y-76704732D01*
X149507213Y-76651971D01*
X149507215Y-76651968D01*
X149507219Y-76651966D01*
X149651966Y-76507219D01*
X149651968Y-76507215D01*
X149651971Y-76507213D01*
X149704732Y-76434590D01*
X149772287Y-76341610D01*
X149865220Y-76159219D01*
X149928477Y-75964534D01*
X149960500Y-75762352D01*
X149960500Y-75557648D01*
X149928477Y-75355466D01*
X149865220Y-75160781D01*
X149865218Y-75160778D01*
X149865218Y-75160776D01*
X149831503Y-75094607D01*
X149772287Y-74978390D01*
X149764556Y-74967749D01*
X149651971Y-74812786D01*
X149507213Y-74668028D01*
X149341614Y-74547715D01*
X149335006Y-74544348D01*
X149248917Y-74500483D01*
X149198123Y-74452511D01*
X149181328Y-74384690D01*
X149203865Y-74318555D01*
X149248917Y-74279516D01*
X149341610Y-74232287D01*
X149362770Y-74216913D01*
X149507213Y-74111971D01*
X149507215Y-74111968D01*
X149507219Y-74111966D01*
X149651966Y-73967219D01*
X149651968Y-73967215D01*
X149651971Y-73967213D01*
X149704732Y-73894590D01*
X149772287Y-73801610D01*
X149865220Y-73619219D01*
X149928477Y-73424534D01*
X149960500Y-73222352D01*
X149960500Y-73017648D01*
X149928477Y-72815466D01*
X149865220Y-72620781D01*
X149865218Y-72620778D01*
X149865218Y-72620776D01*
X149831503Y-72554607D01*
X149772287Y-72438390D01*
X149764556Y-72427749D01*
X149651971Y-72272786D01*
X149507213Y-72128028D01*
X149341611Y-72007713D01*
X149248369Y-71960203D01*
X149197574Y-71912229D01*
X149180779Y-71844407D01*
X149203317Y-71778273D01*
X149248371Y-71739234D01*
X149341346Y-71691861D01*
X149341347Y-71691861D01*
X149385921Y-71659474D01*
X148706447Y-70980000D01*
X148712661Y-70980000D01*
X148814394Y-70952741D01*
X148905606Y-70900080D01*
X148980080Y-70825606D01*
X149032741Y-70734394D01*
X149060000Y-70632661D01*
X149060000Y-70626447D01*
X149739474Y-71305921D01*
X149771859Y-71261349D01*
X149864755Y-71079031D01*
X149927990Y-70884417D01*
X149960000Y-70682317D01*
X149960000Y-70477682D01*
X149927990Y-70275582D01*
X149864755Y-70080968D01*
X149771859Y-69898650D01*
X149739474Y-69854077D01*
X149739474Y-69854076D01*
X149060000Y-70533551D01*
X149060000Y-70527339D01*
X149032741Y-70425606D01*
X148980080Y-70334394D01*
X148905606Y-70259920D01*
X148814394Y-70207259D01*
X148712661Y-70180000D01*
X148706446Y-70180000D01*
X149385922Y-69500524D01*
X149385921Y-69500523D01*
X149341359Y-69468147D01*
X149341350Y-69468141D01*
X149248369Y-69420765D01*
X149197573Y-69372790D01*
X149180778Y-69304969D01*
X149203315Y-69238835D01*
X149248370Y-69199795D01*
X149341610Y-69152287D01*
X149391144Y-69116298D01*
X149507213Y-69031971D01*
X149507215Y-69031968D01*
X149507219Y-69031966D01*
X149651966Y-68887219D01*
X149651968Y-68887215D01*
X149651971Y-68887213D01*
X149704732Y-68814590D01*
X149772287Y-68721610D01*
X149865220Y-68539219D01*
X149928477Y-68344534D01*
X149960500Y-68142352D01*
X149960500Y-67937648D01*
X149928477Y-67735466D01*
X149865220Y-67540781D01*
X149865218Y-67540778D01*
X149865218Y-67540776D01*
X149831503Y-67474607D01*
X149772287Y-67358390D01*
X149764556Y-67347749D01*
X149651971Y-67192786D01*
X149507219Y-67048034D01*
X149507211Y-67048028D01*
X149413547Y-66979978D01*
X149370882Y-66924649D01*
X149364903Y-66855036D01*
X149397508Y-66793240D01*
X149447426Y-66761955D01*
X149529334Y-66734814D01*
X149678656Y-66642712D01*
X149802712Y-66518656D01*
X149894814Y-66369334D01*
X149949999Y-66202797D01*
X149960500Y-66100009D01*
X149960499Y-65397648D01*
X154979500Y-65397648D01*
X154979500Y-65602351D01*
X155011522Y-65804534D01*
X155074781Y-65999223D01*
X155167715Y-66181613D01*
X155288028Y-66347213D01*
X155432786Y-66491971D01*
X155587749Y-66604556D01*
X155598390Y-66612287D01*
X155689840Y-66658883D01*
X155691080Y-66659515D01*
X155741876Y-66707490D01*
X155758671Y-66775311D01*
X155736134Y-66841446D01*
X155691080Y-66880485D01*
X155598386Y-66927715D01*
X155432786Y-67048028D01*
X155288028Y-67192786D01*
X155167715Y-67358386D01*
X155074781Y-67540776D01*
X155011522Y-67735465D01*
X154979500Y-67937648D01*
X154979500Y-68142351D01*
X155011522Y-68344534D01*
X155074781Y-68539223D01*
X155167715Y-68721613D01*
X155288028Y-68887213D01*
X155432786Y-69031971D01*
X155598385Y-69152284D01*
X155598387Y-69152285D01*
X155598390Y-69152287D01*
X155691630Y-69199795D01*
X155742426Y-69247770D01*
X155759221Y-69315591D01*
X155736684Y-69381725D01*
X155691630Y-69420765D01*
X155598644Y-69468143D01*
X155554077Y-69500523D01*
X155554077Y-69500524D01*
X156233554Y-70180000D01*
X156227339Y-70180000D01*
X156125606Y-70207259D01*
X156034394Y-70259920D01*
X155959920Y-70334394D01*
X155907259Y-70425606D01*
X155880000Y-70527339D01*
X155880000Y-70533553D01*
X155200524Y-69854077D01*
X155200523Y-69854077D01*
X155168143Y-69898644D01*
X155075244Y-70080968D01*
X155012009Y-70275582D01*
X154980000Y-70477682D01*
X154980000Y-70682317D01*
X155012009Y-70884417D01*
X155075244Y-71079031D01*
X155168141Y-71261350D01*
X155168147Y-71261359D01*
X155200523Y-71305921D01*
X155200524Y-71305922D01*
X155880000Y-70626446D01*
X155880000Y-70632661D01*
X155907259Y-70734394D01*
X155959920Y-70825606D01*
X156034394Y-70900080D01*
X156125606Y-70952741D01*
X156227339Y-70980000D01*
X156233553Y-70980000D01*
X155554076Y-71659474D01*
X155598652Y-71691861D01*
X155691628Y-71739234D01*
X155742425Y-71787208D01*
X155759220Y-71855029D01*
X155736683Y-71921164D01*
X155691630Y-71960203D01*
X155598388Y-72007713D01*
X155432786Y-72128028D01*
X155288028Y-72272786D01*
X155167715Y-72438386D01*
X155074781Y-72620776D01*
X155011522Y-72815465D01*
X154979500Y-73017648D01*
X154979500Y-73222351D01*
X155011522Y-73424534D01*
X155074781Y-73619223D01*
X155167715Y-73801613D01*
X155288028Y-73967213D01*
X155432786Y-74111971D01*
X155587749Y-74224556D01*
X155598390Y-74232287D01*
X155689840Y-74278883D01*
X155691080Y-74279515D01*
X155741876Y-74327490D01*
X155758671Y-74395311D01*
X155736134Y-74461446D01*
X155691080Y-74500485D01*
X155598386Y-74547715D01*
X155432786Y-74668028D01*
X155288028Y-74812786D01*
X155167715Y-74978386D01*
X155074781Y-75160776D01*
X155011522Y-75355465D01*
X154979500Y-75557648D01*
X154979500Y-75762351D01*
X155011522Y-75964534D01*
X155074781Y-76159223D01*
X155167715Y-76341613D01*
X155288028Y-76507213D01*
X155432786Y-76651971D01*
X155587749Y-76764556D01*
X155598390Y-76772287D01*
X155714607Y-76831503D01*
X155780776Y-76865218D01*
X155780778Y-76865218D01*
X155780781Y-76865220D01*
X155885137Y-76899127D01*
X155975465Y-76928477D01*
X156076557Y-76944488D01*
X156177648Y-76960500D01*
X156177649Y-76960500D01*
X156382351Y-76960500D01*
X156382352Y-76960500D01*
X156584534Y-76928477D01*
X156779219Y-76865220D01*
X156961610Y-76772287D01*
X157054590Y-76704732D01*
X157127213Y-76651971D01*
X157127215Y-76651968D01*
X157127219Y-76651966D01*
X157271966Y-76507219D01*
X157271968Y-76507215D01*
X157271971Y-76507213D01*
X157324732Y-76434590D01*
X157392287Y-76341610D01*
X157485220Y-76159219D01*
X157548477Y-75964534D01*
X157580500Y-75762352D01*
X157580500Y-75557648D01*
X157548477Y-75355466D01*
X157485220Y-75160781D01*
X157485218Y-75160778D01*
X157485218Y-75160776D01*
X157451503Y-75094607D01*
X157392287Y-74978390D01*
X157384556Y-74967749D01*
X157271971Y-74812786D01*
X157127213Y-74668028D01*
X156961614Y-74547715D01*
X156955006Y-74544348D01*
X156868917Y-74500483D01*
X156818123Y-74452511D01*
X156801328Y-74384690D01*
X156823865Y-74318555D01*
X156868917Y-74279516D01*
X156961610Y-74232287D01*
X156982770Y-74216913D01*
X157127213Y-74111971D01*
X157127215Y-74111968D01*
X157127219Y-74111966D01*
X157271966Y-73967219D01*
X157271968Y-73967215D01*
X157271971Y-73967213D01*
X157324732Y-73894590D01*
X157392287Y-73801610D01*
X157485220Y-73619219D01*
X157548477Y-73424534D01*
X157580500Y-73222352D01*
X157580500Y-73017648D01*
X157548477Y-72815466D01*
X157485220Y-72620781D01*
X157485218Y-72620778D01*
X157485218Y-72620776D01*
X157451503Y-72554607D01*
X157392287Y-72438390D01*
X157384556Y-72427749D01*
X157271971Y-72272786D01*
X157127213Y-72128028D01*
X156961611Y-72007713D01*
X156868369Y-71960203D01*
X156817574Y-71912229D01*
X156800779Y-71844407D01*
X156823317Y-71778273D01*
X156868371Y-71739234D01*
X156961346Y-71691861D01*
X156961347Y-71691861D01*
X157005921Y-71659474D01*
X156326447Y-70980000D01*
X156332661Y-70980000D01*
X156434394Y-70952741D01*
X156525606Y-70900080D01*
X156600080Y-70825606D01*
X156652741Y-70734394D01*
X156680000Y-70632661D01*
X156680000Y-70626447D01*
X157359474Y-71305921D01*
X157391859Y-71261349D01*
X157484755Y-71079031D01*
X157547990Y-70884417D01*
X157580000Y-70682317D01*
X157580000Y-70477682D01*
X157547990Y-70275582D01*
X157484755Y-70080968D01*
X157391859Y-69898650D01*
X157359474Y-69854077D01*
X157359474Y-69854076D01*
X156680000Y-70533551D01*
X156680000Y-70527339D01*
X156652741Y-70425606D01*
X156600080Y-70334394D01*
X156525606Y-70259920D01*
X156434394Y-70207259D01*
X156332661Y-70180000D01*
X156326446Y-70180000D01*
X157005922Y-69500524D01*
X157005921Y-69500523D01*
X156961359Y-69468147D01*
X156961350Y-69468141D01*
X156868369Y-69420765D01*
X156817573Y-69372790D01*
X156800778Y-69304969D01*
X156823315Y-69238835D01*
X156868370Y-69199795D01*
X156961610Y-69152287D01*
X157011144Y-69116298D01*
X157127213Y-69031971D01*
X157127215Y-69031968D01*
X157127219Y-69031966D01*
X157271966Y-68887219D01*
X157271968Y-68887215D01*
X157271971Y-68887213D01*
X157324732Y-68814590D01*
X157392287Y-68721610D01*
X157485220Y-68539219D01*
X157548477Y-68344534D01*
X157580500Y-68142352D01*
X157580500Y-67937648D01*
X157548477Y-67735466D01*
X157485220Y-67540781D01*
X157485218Y-67540778D01*
X157485218Y-67540776D01*
X157451503Y-67474607D01*
X157392287Y-67358390D01*
X157384556Y-67347749D01*
X157271971Y-67192786D01*
X157127213Y-67048028D01*
X156961614Y-66927715D01*
X156955006Y-66924348D01*
X156868917Y-66880483D01*
X156818123Y-66832511D01*
X156801328Y-66764690D01*
X156823865Y-66698555D01*
X156868917Y-66659516D01*
X156961610Y-66612287D01*
X157090482Y-66518657D01*
X157127213Y-66491971D01*
X157127215Y-66491968D01*
X157127219Y-66491966D01*
X157271966Y-66347219D01*
X157271968Y-66347215D01*
X157271971Y-66347213D01*
X157376892Y-66202799D01*
X157392287Y-66181610D01*
X157485220Y-65999219D01*
X157548477Y-65804534D01*
X157580500Y-65602352D01*
X157580500Y-65397648D01*
X157548477Y-65195466D01*
X157485220Y-65000781D01*
X157485218Y-65000778D01*
X157485218Y-65000776D01*
X157433865Y-64899991D01*
X157392287Y-64818390D01*
X157376892Y-64797200D01*
X157271971Y-64652786D01*
X157127213Y-64508028D01*
X156961613Y-64387715D01*
X156961612Y-64387714D01*
X156961610Y-64387713D01*
X156901898Y-64357288D01*
X156779223Y-64294781D01*
X156584534Y-64231522D01*
X156409995Y-64203878D01*
X156382352Y-64199500D01*
X156177648Y-64199500D01*
X156153329Y-64203351D01*
X155975465Y-64231522D01*
X155780776Y-64294781D01*
X155598386Y-64387715D01*
X155432786Y-64508028D01*
X155288028Y-64652786D01*
X155167715Y-64818386D01*
X155074781Y-65000776D01*
X155011522Y-65195465D01*
X154979500Y-65397648D01*
X149960499Y-65397648D01*
X149960499Y-64899992D01*
X149949999Y-64797203D01*
X149894814Y-64630666D01*
X149802712Y-64481344D01*
X149678656Y-64357288D01*
X149529334Y-64265186D01*
X149362797Y-64210001D01*
X149362795Y-64210000D01*
X149260010Y-64199500D01*
X148059998Y-64199500D01*
X148059981Y-64199501D01*
X147957203Y-64210000D01*
X147957200Y-64210001D01*
X147790668Y-64265185D01*
X147790663Y-64265187D01*
X147641342Y-64357289D01*
X147517289Y-64481342D01*
X147425187Y-64630663D01*
X147425186Y-64630666D01*
X147370001Y-64797203D01*
X147370001Y-64797204D01*
X147370000Y-64797204D01*
X147359500Y-64899983D01*
X137700500Y-64899983D01*
X137700500Y-62877973D01*
X139949500Y-62877973D01*
X139949500Y-63122026D01*
X139987678Y-63363072D01*
X140063097Y-63595187D01*
X140173896Y-63812642D01*
X140317339Y-64010076D01*
X140317343Y-64010081D01*
X140489918Y-64182656D01*
X140489923Y-64182660D01*
X140603513Y-64265187D01*
X140687361Y-64326106D01*
X140904815Y-64436904D01*
X141136924Y-64512321D01*
X141377973Y-64550500D01*
X141377974Y-64550500D01*
X141622026Y-64550500D01*
X141622027Y-64550500D01*
X141863076Y-64512321D01*
X142095185Y-64436904D01*
X142312639Y-64326106D01*
X142510083Y-64182655D01*
X142682655Y-64010083D01*
X142826106Y-63812639D01*
X142936904Y-63595185D01*
X143012321Y-63363076D01*
X143050500Y-63122027D01*
X143050500Y-62877973D01*
X143012321Y-62636924D01*
X142936904Y-62404815D01*
X142826106Y-62187361D01*
X142807779Y-62162136D01*
X142682660Y-61989923D01*
X142682656Y-61989918D01*
X142510081Y-61817343D01*
X142510076Y-61817339D01*
X142312642Y-61673896D01*
X142312641Y-61673895D01*
X142312639Y-61673894D01*
X142095185Y-61563096D01*
X141863076Y-61487679D01*
X141863074Y-61487678D01*
X141863072Y-61487678D01*
X141694769Y-61461021D01*
X141622027Y-61449500D01*
X141377973Y-61449500D01*
X141322093Y-61458350D01*
X141136927Y-61487678D01*
X140904812Y-61563097D01*
X140687357Y-61673896D01*
X140489923Y-61817339D01*
X140489918Y-61817343D01*
X140317343Y-61989918D01*
X140317339Y-61989923D01*
X140173896Y-62187357D01*
X140063097Y-62404812D01*
X139987678Y-62636927D01*
X139949500Y-62877973D01*
X137700500Y-62877973D01*
X137700500Y-59824500D01*
X137720185Y-59757461D01*
X137772989Y-59711706D01*
X137824500Y-59700500D01*
X167675500Y-59700500D01*
X167742539Y-59720185D01*
G37*
%TD.AperFunction*%
%TD*%
M02*
