M48
; DRILL file KiCad 10.0.1 date 2026-09-09T14:38:15
; FORMAT={-:-/ absolute / metric / decimal}
; #@! TF.CreationDate,2026-09-09T14:38:15-04:00
; #@! TF.GenerationSoftware,Kicad,Pcbnew,10.0.1
; #@! TF.FileFunction,Plated,1,4,PTH
FMAT,2
METRIC
; #@! TA.AperFunction,Plated,PTH,ComponentDrill
T1C0.800
; #@! TA.AperFunction,Plated,PTH,ComponentDrill
T2C1.000
%
G90
G05
T1
X144.92Y-144.0
X147.34Y-108.06
X147.34Y-110.6
X147.34Y-113.14
X147.34Y-115.68
X147.34Y-118.22
X147.34Y-120.76
X147.34Y-123.3
X147.34Y-125.84
X147.34Y-128.38
X147.34Y-130.92
X147.34Y-133.46
X147.34Y-136.0
X147.46Y-144.0
X148.66Y-65.5
X148.66Y-68.04
X148.66Y-70.58
X148.66Y-73.12
X148.66Y-75.66
X148.66Y-82.61
X148.66Y-85.15
X148.66Y-87.69
X148.66Y-90.23
X148.66Y-92.77
X148.66Y-95.31
X148.66Y-97.85
X148.66Y-100.39
X150.0Y-144.0
X152.54Y-144.0
X155.08Y-144.0
X156.28Y-65.5
X156.28Y-68.04
X156.28Y-70.58
X156.28Y-73.12
X156.28Y-75.66
X156.28Y-82.61
X156.28Y-85.15
X156.28Y-87.69
X156.28Y-90.23
X156.28Y-92.77
X156.28Y-95.31
X156.28Y-97.85
X156.28Y-100.39
X157.5Y-108.06
X157.5Y-110.6
X157.5Y-113.14
X157.5Y-115.68
X157.5Y-118.22
X157.5Y-120.76
X157.5Y-123.3
X157.5Y-125.84
X157.5Y-128.38
X157.5Y-130.92
X157.5Y-133.46
X157.5Y-136.0
X157.62Y-144.0
X160.16Y-144.0
X163.5Y-109.5
X163.5Y-114.5
T2
X143.88Y-148.705
X146.42Y-148.705
X148.96Y-148.705
X151.5Y-148.705
X154.04Y-148.705
X156.58Y-148.705
X159.12Y-148.705
X161.66Y-148.705
M30
